<svg width="26" height="18" viewBox="0 0 26 18" fill="none" xmlns="http://www.w3.org/2000/svg">
<path d="M14.6814 5.21052C14.6814 8.28947 16.7319 10.0263 19.2744 10.0263C20.2587 10.0263 20.9968 9.78947 21.571 9.47368C21.571 12 19.2744 14.0526 16.0757 14.6842V18C21.817 17.2105 26 12.6316 26 6.86842C26 2.60526 23.3754 0 20.0946 0C16.8139 0 14.6814 2.21052 14.6814 5.21052ZM0 5.21052C0 8.28947 2.13249 10.0263 4.67508 10.0263C5.57729 10.0263 6.31546 9.86842 6.88959 9.55263C6.88959 12 4.59306 14.0526 1.39432 14.6842V18C7.13564 17.2105 11.4006 12.6316 11.4006 6.86842C11.4006 2.60526 8.77602 0 5.41325 0C2.21451 0 0 2.21052 0 5.21052Z" fill="white"/>
</svg>
