<svg width="20" height="20" viewBox="0 0 20 20" fill="none" xmlns="http://www.w3.org/2000/svg">
<path d="M5.76562 8.125L8.76562 11.125L17.1562 2.78125L18.5156 4.14062L8.76562 13.8906L4.40625 9.53125L5.76562 8.125ZM17.5312 10H19.5C19.5 12.6875 18.5469 14.9844 16.6406 16.8906C14.7344 18.7969 12.4375 19.75 9.75 19.75C7.0625 19.75 4.76562 18.7969 2.85938 16.8906C0.953125 14.9844 0 12.6875 0 10C0 7.3125 0.953125 5.01562 2.85938 3.10938C4.76562 1.20312 7.0625 0.25 9.75 0.25C11 0.25 12.2188 0.5 13.4062 1L11.9062 2.5C11.2188 2.3125 10.5 2.21875 9.75 2.21875C7.59375 2.21875 5.75 2.98437 4.21875 4.51562C2.71875 6.01562 1.96875 7.84375 1.96875 10C1.96875 12.1562 2.71875 14 4.21875 15.5312C5.75 17.0312 7.59375 17.7812 9.75 17.7812C11.9062 17.7812 13.7344 17.0312 15.2344 15.5312C16.7656 14 17.5312 12.1562 17.5312 10Z" fill="#3921F5"/>
</svg>
