<svg width="36" height="36" viewBox="0 0 36 36" fill="none" xmlns="http://www.w3.org/2000/svg">
<g clip-path="url(#clip0_1_3640)">
<path d="M14.8379 25.524C14.8379 22.7456 15.9453 20.081 17.9164 18.1164C19.8876 16.1517 22.561 15.048 25.3487 15.048C28.1363 15.048 30.8098 16.1517 32.7809 18.1164C34.7521 20.081 35.8595 22.7456 35.8595 25.524C35.8595 28.3024 34.7521 30.967 32.7809 32.9317C30.8098 34.8963 28.1363 36 25.3487 36C22.561 36 19.8876 34.8963 17.9164 32.9317C15.9453 30.967 14.8379 28.3024 14.8379 25.524Z" fill="url(#paint0_linear_1_3640)"/>
<path d="M0.189453 10.4796C0.189453 9.10343 0.461418 7.7407 0.989816 6.46926C1.51821 5.19782 2.2927 4.04255 3.26905 3.06943C4.2454 2.09631 5.4045 1.32439 6.68016 0.797743C7.95583 0.271093 9.32308 3.05176e-05 10.7039 3.05176e-05C13.4925 3.05176e-05 16.1668 1.10413 18.1387 3.06943C20.1105 5.03474 21.2183 7.70027 21.2183 10.4796C21.2183 13.259 20.1105 15.9245 18.1387 17.8898C16.1668 19.8551 13.4925 20.9592 10.7039 20.9592C9.32308 20.9592 7.95583 20.6882 6.68016 20.1615C5.4045 19.6349 4.2454 18.8629 3.26905 17.8898C2.2927 16.9167 1.51821 15.7614 0.989816 14.49C0.461418 13.2186 0.189453 11.8558 0.189453 10.4796Z" fill="url(#paint1_linear_1_3640)"/>
<path opacity="0.05" fill-rule="evenodd" clip-rule="evenodd" d="M35.821 24.6276C35.6578 22.6482 34.937 20.7556 33.7422 19.1691C32.5474 17.5826 30.9275 16.3671 29.0703 15.6635C27.213 14.9599 25.1944 14.7969 23.2483 15.1936C21.3022 15.5902 19.5083 16.5301 18.0745 17.9044C16.6408 19.2788 15.6258 21.0313 15.1471 22.9588C14.6685 24.8864 14.7459 26.9101 15.3703 28.7955C15.9947 30.6809 17.1405 32.3507 18.675 33.6116C20.2096 34.8725 22.07 35.6727 24.0406 35.9196C26.7165 35.0245 29.1607 33.5476 31.1976 31.5951C33.2345 29.6426 34.8135 27.2631 35.821 24.6276Z" fill="black"/>
<path opacity="0.05" fill-rule="evenodd" clip-rule="evenodd" d="M0.217041 11.232C0.354324 13.2355 1.06255 15.1577 2.25794 16.7714C3.45334 18.385 5.08587 19.6225 6.96246 20.3375C8.83904 21.0525 10.8812 21.2151 12.8472 20.806C14.8133 20.397 16.6211 19.4334 18.0568 18.0292C19.4924 16.625 20.4959 14.839 20.9484 12.8825C21.401 10.926 21.2837 8.88074 20.6105 6.98877C19.9372 5.0968 18.7362 3.43723 17.1494 2.20636C15.5627 0.975494 13.6566 0.224836 11.6566 0.0431824C9.05394 0.969923 6.68329 2.45033 4.70829 4.38224C2.73329 6.31415 1.20096 8.65156 0.217041 11.2332V11.232Z" fill="black"/>
<path opacity="0.1" fill-rule="evenodd" clip-rule="evenodd" d="M35.329 22.2324C34.7769 20.5435 33.8055 19.0222 32.5056 17.8109C31.2058 16.5995 29.6199 15.7376 27.8964 15.3057C26.1729 14.8739 24.368 14.8862 22.6505 15.3416C20.933 15.7969 19.3591 16.6804 18.0759 17.9095C16.7927 19.1385 15.8422 20.6729 15.3133 22.3691C14.7843 24.0654 14.6942 25.8681 15.0514 27.6086C15.4086 29.3492 16.2014 30.9707 17.3556 32.3215C18.5099 33.6724 19.9879 34.7084 21.6514 35.3328C24.9295 34.6498 27.9499 33.0596 30.3682 30.7433C32.7865 28.4271 34.5054 25.4781 35.329 22.2324Z" fill="black"/>
<path opacity="0.1" fill-rule="evenodd" clip-rule="evenodd" d="M0.694336 13.6943C1.2383 15.4032 2.21049 16.9444 3.51841 18.1714C4.82632 19.3983 6.42644 20.2702 8.16652 20.704C9.90659 21.1378 11.7287 21.1191 13.4596 20.6497C15.1904 20.1804 16.7723 19.2759 18.0548 18.0224C19.3373 16.7689 20.2777 15.2081 20.7865 13.4884C21.2953 11.7688 21.3557 9.94757 20.9617 8.19803C20.5678 6.44849 19.7328 4.82886 18.536 3.49324C17.3393 2.15762 15.8207 1.15044 14.1247 0.567551C10.8885 1.29383 7.91825 2.90635 5.54633 5.22466C3.1744 7.54296 1.49441 10.4756 0.694336 13.6943Z" fill="black"/>
<path opacity="0.1" fill-rule="evenodd" clip-rule="evenodd" d="M34.9425 21.2387C34.2586 19.6978 33.2139 18.3441 31.8965 17.292C30.5792 16.2399 29.0279 15.5204 27.3738 15.1943C25.7198 14.8682 24.0115 14.945 22.3934 15.4182C20.7753 15.8915 19.2949 16.7473 18.0772 17.9133C16.8596 19.0794 15.9405 20.5214 15.3977 22.1175C14.8549 23.7136 14.7042 25.417 14.9585 27.0836C15.2127 28.7502 15.8644 30.3311 16.8585 31.6928C17.8526 33.0545 19.1598 34.1568 20.6697 34.9067C24.1617 34.3632 27.4027 32.7611 29.9552 30.3169C32.5076 27.8726 34.2484 24.7039 34.9425 21.2387Z" fill="black"/>
<path opacity="0.1" fill-rule="evenodd" clip-rule="evenodd" d="M1.08203 14.7084C1.76241 16.2672 2.81105 17.6376 4.13786 18.7018C5.46467 19.7659 7.02998 20.4921 8.69934 20.8179C10.3687 21.1437 12.0922 21.0594 13.7218 20.5721C15.3513 20.0849 16.8383 19.2094 18.0548 18.0208C19.2714 16.8321 20.1813 15.3659 20.7062 13.7481C21.2311 12.1303 21.3555 10.4092 21.0686 8.73277C20.7816 7.0563 20.092 5.47454 19.059 4.12337C18.0259 2.7722 16.6803 1.69201 15.1376 0.975601C11.6763 1.56375 8.47652 3.19334 5.96521 5.64697C3.4539 8.1006 1.75043 11.2616 1.08203 14.7084Z" fill="black"/>
<path d="M1.375 17.922C1.375 15.7431 1.80561 13.5855 2.64223 11.5724C3.47885 9.55929 4.7051 7.73015 6.25097 6.18941C7.79685 4.64866 9.63206 3.42647 11.6518 2.59262C13.6716 1.75877 15.8364 1.32961 18.0226 1.32961C20.2088 1.32961 22.3735 1.75877 24.3933 2.59262C26.4131 3.42647 28.2483 4.64866 29.7942 6.18941C31.3401 7.73015 32.5663 9.55929 33.4029 11.5724C34.2396 13.5855 34.6702 15.7431 34.6702 17.922C34.6702 20.1009 34.2396 22.2586 33.4029 24.2716C32.5663 26.2847 31.3401 28.1139 29.7942 29.6546C28.2483 31.1953 26.4131 32.4175 24.3933 33.2514C22.3735 34.0852 20.2088 34.5144 18.0226 34.5144C15.8364 34.5144 13.6716 34.0852 11.6518 33.2514C9.63206 32.4175 7.79685 31.1953 6.25097 29.6546C4.7051 28.1139 3.47885 26.2847 2.64223 24.2716C1.80561 22.2586 1.375 20.1009 1.375 17.922Z" fill="url(#paint2_linear_1_3640)"/>
<path fill-rule="evenodd" clip-rule="evenodd" d="M22.7038 18.498C23.3765 18.9408 23.9379 19.5329 24.3442 20.2284C24.7364 20.9631 24.93 21.7875 24.9058 22.62C24.9355 23.6765 24.575 24.7069 23.893 25.5144C23.1843 26.3252 22.2734 26.9339 21.253 27.2784C20.1432 27.6704 18.974 27.8673 17.797 27.8604C17.027 27.8676 16.2577 27.8086 15.4978 27.684C14.9539 27.6 14.4196 27.4621 13.903 27.2724C13.4286 27.1118 13.0003 26.8383 12.655 26.4756C12.4006 26.1771 12.2636 25.7961 12.2698 25.404C12.2607 25.2002 12.2919 24.9967 12.3615 24.805C12.4311 24.6133 12.5377 24.4372 12.6754 24.2868C12.8057 24.1481 12.9638 24.0386 13.1393 23.9654C13.3149 23.8922 13.504 23.8569 13.6942 23.862C13.9559 23.8641 14.214 23.9222 14.4514 24.0324C15.0364 24.2942 15.6391 24.5148 16.255 24.6924C16.8219 24.8419 17.4063 24.9145 17.9926 24.9084C18.7567 24.9365 19.5126 24.7431 20.1694 24.3516C20.4465 24.1832 20.6734 23.9434 20.8262 23.6574C20.979 23.3714 21.0522 23.0496 21.0382 22.7256C21.0422 22.3002 20.8804 21.89 20.587 21.582C20.2384 21.2201 19.8264 20.9252 19.3714 20.712C18.8618 20.4592 18.1018 20.124 17.0914 19.7064C16.9795 19.6709 16.8704 19.6272 16.765 19.5756C15.779 19.1855 14.8336 18.6996 13.9426 18.1248C13.2389 17.6659 12.6455 17.0569 12.205 16.3416C11.7713 15.5897 11.5541 14.7325 11.5774 13.8648C11.541 12.8024 11.8454 11.7562 12.4462 10.8792C13.0579 10.0488 13.9043 9.42064 14.8762 9.07555C16.0476 8.65703 17.2854 8.45534 18.529 8.48035C20.238 8.42054 21.9388 8.74234 23.5078 9.42235C23.9089 9.60099 24.2606 9.87444 24.5326 10.2192C24.7584 10.5351 24.8755 10.9158 24.8662 11.304C24.8774 11.5087 24.844 11.7135 24.7684 11.9041C24.6928 12.0947 24.5767 12.2666 24.4282 12.408C24.1168 12.6806 23.7126 12.8233 23.299 12.8064C22.8382 12.8001 22.3856 12.6836 21.979 12.4668C21.4734 12.214 21.0746 12.0244 20.7826 11.898C20.4491 11.7583 20.1037 11.6491 19.7506 11.5716C19.3152 11.476 18.8703 11.4302 18.4246 11.4348C17.6363 11.3785 16.8519 11.5876 16.1962 12.0288C15.9507 12.2208 15.7546 12.4686 15.6239 12.7516C15.4933 13.0345 15.432 13.3446 15.445 13.656C15.4443 14.0975 15.6126 14.5226 15.9154 14.844C16.3156 15.2571 16.7841 15.5981 17.3002 15.852C17.9106 16.1736 18.769 16.5656 19.8754 17.028C20.8649 17.4223 21.8124 17.9147 22.7038 18.498Z" fill="white"/>
</g>
<defs>
<linearGradient id="paint0_linear_1_3640" x1="26.9879" y1="35.8728" x2="23.7095" y2="15.1752" gradientUnits="userSpaceOnUse">
<stop offset="0.012" stop-color="#00B7F0"/>
<stop offset="0.339" stop-color="#009DE5"/>
<stop offset="0.755" stop-color="#0082D9"/>
<stop offset="1" stop-color="#0078D4"/>
</linearGradient>
<linearGradient id="paint1_linear_1_3640" x1="19.8047" y1="5.22603" x2="1.60425" y2="15.7332" gradientUnits="userSpaceOnUse">
<stop stop-color="#0078D4"/>
<stop offset="0.37" stop-color="#007AD5"/>
<stop offset="0.573" stop-color="#0082D9"/>
<stop offset="0.735" stop-color="#0090DF"/>
<stop offset="0.875" stop-color="#00A3E7"/>
<stop offset="1" stop-color="#00BCF2"/>
</linearGradient>
<linearGradient id="paint2_linear_1_3640" x1="24.5194" y1="29.1732" x2="7.9102" y2="0.405599" gradientUnits="userSpaceOnUse">
<stop stop-color="#00B7F0"/>
<stop offset="1" stop-color="#007CC1"/>
</linearGradient>
<clipPath id="clip0_1_3640">
<rect width="36" height="36" fill="white"/>
</clipPath>
</defs>
</svg>
