<svg width="36" height="36" viewBox="0 0 36 36" fill="none" xmlns="http://www.w3.org/2000/svg">
<g clip-path="url(#clip0_1_3696)">
<path d="M9.97209 30.2917L10.5138 30.6128C12.79 31.9634 15.3996 32.6778 18.0607 32.6793H18.0665C26.2389 32.6793 32.8903 26.0294 32.8938 17.8563C32.8951 13.8954 31.3545 10.171 28.5549 7.36942C25.7552 4.56788 22.0328 3.02406 18.0721 3.02243C9.89316 3.02243 3.24188 9.67141 3.23863 17.8442C3.23752 20.6449 4.0211 23.3725 5.50548 25.7326L5.8584 26.2933L4.36008 31.7631L9.97209 30.2917ZM0.0769043 36L2.6078 26.7589C1.04679 24.0543 0.225479 20.9862 0.226677 17.843C0.230612 8.01008 8.23303 0.0102234 18.0665 0.0102234C22.8384 0.0122763 27.3174 1.86959 30.6858 5.24027C34.0537 8.61122 35.9077 13.0919 35.906 17.8575C35.9019 27.6899 27.8984 35.6912 18.0665 35.6912C18.0658 35.6912 18.067 35.6912 18.0665 35.6912H18.0588C15.0734 35.69 12.1396 34.9412 9.53406 33.5202L0.0769043 36Z" fill="white"/>
<path d="M0.829892 17.8289C0.829892 20.8863 1.629 23.8396 3.15774 26.4453L0.690918 35.3746L9.82861 32.9773C12.3302 34.3669 15.1791 35.0618 18.0629 35.0618C27.548 35.0618 35.2958 27.3487 35.2958 17.8636C35.2958 13.2427 33.4892 8.93444 30.258 5.66851C26.9921 2.43733 22.6838 0.630646 18.0629 0.630646C8.57779 0.630646 0.829892 8.34379 0.829892 17.8289Z" fill="url(#paint0_linear_1_3696)"/>
<path d="M0.214271 17.815C0.214271 20.9821 1.04204 24.0412 2.62559 26.7404L0.0703125 35.9897L9.5356 33.5065C12.1269 34.9461 15.0781 35.6658 18.0653 35.6658C27.8905 35.6658 35.9161 27.6762 35.9161 17.851C35.9161 13.0643 34.0447 8.60154 30.6977 5.21849C27.3146 1.87144 22.8519 -3.05176e-05 18.0653 -3.05176e-05C8.24 -3.05176e-05 0.214271 7.98971 0.214271 17.815ZM5.86467 26.2725L5.50478 25.7327C4.02919 23.3573 3.23741 20.6221 3.23741 17.851C3.23741 9.6452 9.8955 3.02311 18.0653 3.02311C22.0241 3.02311 25.767 4.57067 28.5383 7.34189C31.3455 10.1491 32.893 13.892 32.893 17.851C32.893 26.0206 26.2349 32.6787 18.0653 32.6787C15.402 32.6787 12.7747 31.9589 10.5073 30.5913L9.96751 30.2674L4.3531 31.743L5.86467 26.2725Z" fill="url(#paint1_linear_1_3696)"/>
<path fill-rule="evenodd" clip-rule="evenodd" d="M13.6077 10.3943C13.2737 9.65206 12.9222 9.63712 12.6045 9.62416C12.3448 9.613 12.0473 9.61372 11.7503 9.61372C11.4532 9.61372 10.9701 9.72532 10.5618 10.1714C10.1531 10.6175 9.00146 11.6957 9.00146 13.8888C9.00146 16.082 10.599 18.2012 10.8215 18.4989C11.0445 18.7961 13.9053 23.4403 18.436 25.2271C22.2014 26.7118 22.9677 26.4165 23.785 26.3423C24.6022 26.2679 26.4221 25.2642 26.7937 24.2233C27.1652 23.1826 27.1652 22.2906 27.0537 22.1041C26.9422 21.9183 26.6451 21.8068 26.1993 21.5839C25.7534 21.3611 23.562 20.2825 23.1533 20.1339C22.7447 19.9854 22.4476 19.9111 22.1504 20.3573C21.8531 20.8031 20.9995 21.8068 20.7393 22.1041C20.4793 22.402 20.2192 22.4392 19.7735 22.2162C19.3276 21.9926 17.892 21.5224 16.189 20.0039C14.8638 18.8225 13.9692 17.3634 13.7091 16.9172C13.4491 16.4714 13.6813 16.23 13.9048 16.0078C14.105 15.808 14.3507 15.4874 14.5735 15.2271C14.7959 14.9668 14.8703 14.7811 15.0189 14.4838C15.1675 14.1862 15.0932 13.9259 14.9818 13.703C14.8703 13.4801 14.004 11.2757 13.6077 10.3943Z" fill="white"/>
</g>
<defs>
<linearGradient id="paint0_linear_1_3696" x1="17.9915" y1="35.3746" x2="17.9915" y2="0.630646" gradientUnits="userSpaceOnUse">
<stop stop-color="#20B038"/>
<stop offset="1" stop-color="#60D66A"/>
</linearGradient>
<linearGradient id="paint1_linear_1_3696" x1="17.9916" y1="35.9897" x2="17.9916" y2="-3.05176e-05" gradientUnits="userSpaceOnUse">
<stop stop-color="#F9F9F9"/>
<stop offset="1" stop-color="white"/>
</linearGradient>
<clipPath id="clip0_1_3696">
<rect width="36" height="36" fill="white"/>
</clipPath>
</defs>
</svg>
