<svg width="36" height="36" viewBox="0 0 36 36" fill="none" xmlns="http://www.w3.org/2000/svg">
<g clip-path="url(#clip0_1_3654)">
<mask id="mask0_1_3654" style="mask-type:luminance" maskUnits="userSpaceOnUse" x="0" y="0" width="36" height="36">
<path d="M36 0H0V36H36V0Z" fill="white"/>
</mask>
<g mask="url(#mask0_1_3654)">
<path d="M7.58968 22.7399C7.58968 24.8306 5.89993 26.5204 3.80925 26.5204C1.71855 26.5204 0.0288086 24.8306 0.0288086 22.7399C0.0288086 20.6492 1.71855 18.9595 3.80925 18.9595H7.58968V22.7399ZM9.47988 22.7399C9.47988 20.6492 11.1696 18.9595 13.2603 18.9595C15.351 18.9595 17.0407 20.6492 17.0407 22.7399V32.191C17.0407 34.2817 15.351 35.9714 13.2603 35.9714C11.1696 35.9714 9.47988 34.2817 9.47988 32.191V22.7399Z" fill="#E01E5A"/>
<path d="M13.2601 7.56086C11.1695 7.56086 9.47972 5.87112 9.47972 3.78043C9.47972 1.68974 11.1695 0 13.2601 0C15.3509 0 17.0406 1.68974 17.0406 3.78043V7.56086H13.2601ZM13.2601 9.47972C15.3509 9.47972 17.0406 11.1695 17.0406 13.2601C17.0406 15.3509 15.3509 17.0406 13.2601 17.0406H3.78043C1.68974 17.0406 0 15.3509 0 13.2601C0 11.1695 1.68974 9.47972 3.78043 9.47972H13.2601Z" fill="#36C5F0"/>
<path d="M28.4106 13.2601C28.4106 11.1695 30.1003 9.47972 32.1909 9.47972C34.2817 9.47972 35.9714 11.1695 35.9714 13.2601C35.9714 15.3509 34.2817 17.0406 32.1909 17.0406H28.4106V13.2601ZM26.5203 13.2601C26.5203 15.3509 24.8306 17.0406 22.7398 17.0406C20.6492 17.0406 18.9595 15.3509 18.9595 13.2601V3.78043C18.9595 1.68974 20.6492 0 22.7398 0C24.8306 0 26.5203 1.68974 26.5203 3.78043V13.2601Z" fill="#2EB67D"/>
<path d="M22.7398 28.4106C24.8306 28.4106 26.5203 30.1003 26.5203 32.191C26.5203 34.2817 24.8306 35.9714 22.7398 35.9714C20.6492 35.9714 18.9595 34.2817 18.9595 32.191V28.4106H22.7398ZM22.7398 26.5204C20.6492 26.5204 18.9595 24.8306 18.9595 22.7399C18.9595 20.6492 20.6492 18.9595 22.7398 18.9595H32.2196C34.3102 18.9595 36 20.6492 36 22.7399C36 24.8306 34.3102 26.5204 32.2196 26.5204H22.7398Z" fill="#ECB22E"/>
</g>
</g>
<defs>
<clipPath id="clip0_1_3654">
<rect width="36" height="36" fill="white"/>
</clipPath>
</defs>
</svg>
