<svg width="36" height="36" viewBox="0 0 36 36" fill="none" xmlns="http://www.w3.org/2000/svg">
<g clip-path="url(#clip0_1_3704)">
<path d="M18 36C27.9411 36 36 27.9411 36 18C36 8.05887 27.9411 0 18 0C8.05887 0 0 8.05887 0 18C0 27.9411 8.05887 36 18 36Z" fill="url(#paint0_linear_1_3704)"/>
<path fill-rule="evenodd" clip-rule="evenodd" d="M8.14778 17.8099C13.3951 15.5237 16.8942 14.0165 18.645 13.2883C23.6438 11.2092 24.6825 10.848 25.3595 10.8361C25.5084 10.8334 25.8413 10.8703 26.057 11.0453C26.2391 11.1931 26.2892 11.3927 26.3132 11.5328C26.3371 11.6729 26.367 11.992 26.3433 12.2414C26.0724 15.0876 24.9003 21.9947 24.3039 25.1825C24.0516 26.5314 23.5548 26.9836 23.0738 27.0279C22.0285 27.1241 21.2348 26.3371 20.2224 25.6735C18.6381 24.635 17.7431 23.9885 16.2054 22.9751C14.4282 21.804 15.5803 21.1603 16.5931 20.1084C16.8581 19.8331 21.4637 15.644 21.5528 15.264C21.564 15.2164 21.5743 15.0393 21.4691 14.9457C21.3638 14.8522 21.2085 14.8842 21.0964 14.9096C20.9375 14.9457 18.4067 16.6184 13.5039 19.928C12.7855 20.4212 12.1349 20.6616 11.5519 20.649C10.9092 20.6351 9.67289 20.2856 8.75384 19.9869C7.62659 19.6204 6.73068 19.4267 6.80869 18.8044C6.84933 18.4803 7.29569 18.1488 8.14778 17.8099Z" fill="white"/>
</g>
<defs>
<linearGradient id="paint0_linear_1_3704" x1="18" y1="0" x2="18" y2="35.733" gradientUnits="userSpaceOnUse">
<stop stop-color="#2AABEE"/>
<stop offset="1" stop-color="#229ED9"/>
</linearGradient>
<clipPath id="clip0_1_3704">
<rect width="36" height="36" fill="white"/>
</clipPath>
</defs>
</svg>
