<svg width="25" height="25" viewBox="0 0 25 25" fill="none" xmlns="http://www.w3.org/2000/svg">
<g clip-path="url(#clip0_251_914)">
<path d="M13.54 1.04162C13.54 0.765354 13.6498 0.500402 13.8451 0.305052C14.0405 0.109701 14.3054 -4.54765e-05 14.5817 -4.54765e-05C17.3434 0.00298744 19.9912 1.10143 21.944 3.05428C23.8969 5.00712 24.9953 7.65488 24.9984 10.4166C24.9984 10.6929 24.8886 10.9578 24.6933 11.1532C24.4979 11.3485 24.233 11.4583 23.9567 11.4583C23.6804 11.4583 23.4155 11.3485 23.2201 11.1532C23.0248 10.9578 22.915 10.6929 22.915 10.4166C22.9125 8.20725 22.0338 6.08907 20.4715 4.5268C18.9092 2.96454 16.7911 2.08577 14.5817 2.08329C14.3054 2.08329 14.0405 1.97354 13.8451 1.77819C13.6498 1.58284 13.54 1.31789 13.54 1.04162ZM14.5817 6.24995C15.6868 6.24995 16.7466 6.68894 17.528 7.47034C18.3094 8.25174 18.7484 9.31155 18.7484 10.4166C18.7484 10.6929 18.8581 10.9578 19.0535 11.1532C19.2488 11.3485 19.5138 11.4583 19.79 11.4583C20.0663 11.4583 20.3312 11.3485 20.5266 11.1532C20.7219 10.9578 20.8317 10.6929 20.8317 10.4166C20.83 8.75953 20.171 7.17077 18.9993 5.99903C17.8275 4.82729 16.2388 4.16828 14.5817 4.16662C14.3054 4.16662 14.0405 4.27637 13.8451 4.47172C13.6498 4.66707 13.54 4.93202 13.54 5.20829C13.54 5.48455 13.6498 5.74951 13.8451 5.94486C14.0405 6.14021 14.3054 6.24995 14.5817 6.24995ZM24.0536 17.4364C24.6572 18.0417 24.9962 18.8617 24.9962 19.7166C24.9962 20.5715 24.6572 21.3915 24.0536 21.9968L23.1056 23.0895C14.5744 31.2572 -6.18602 10.502 1.85565 1.9437L3.05357 0.902038C3.65958 0.315243 4.47224 -0.00936935 5.31576 -0.00157168C6.15927 0.00622599 6.9658 0.345807 7.56086 0.943705C7.59315 0.975996 9.52336 3.48329 9.52336 3.48329C10.0961 4.08498 10.4149 4.88426 10.4136 5.71496C10.4122 6.54566 10.0908 7.34388 9.51607 7.9437L8.30982 9.46037C8.97737 11.0824 9.95884 12.5565 11.1978 13.798C12.4369 15.0395 13.909 16.0239 15.5296 16.6947L17.0556 15.4812C17.6556 14.9069 18.4536 14.5859 19.2841 14.5847C20.1145 14.5836 20.9135 14.9024 21.515 15.475C21.515 15.475 24.0213 17.4041 24.0536 17.4364ZM22.6202 18.951C22.6202 18.951 20.1275 17.0333 20.0952 17.001C19.8806 16.7882 19.5907 16.6688 19.2885 16.6688C18.9863 16.6688 18.6963 16.7882 18.4817 17.001C18.4536 17.0302 16.3525 18.7041 16.3525 18.7041C16.2109 18.8168 16.0424 18.8907 15.8636 18.9185C15.6848 18.9462 15.5018 18.9269 15.3327 18.8625C13.2332 18.0808 11.3262 16.857 9.74089 15.274C8.15558 13.691 6.92898 11.7858 6.14419 9.68746C6.07461 9.51605 6.05192 9.32921 6.07847 9.14614C6.10501 8.96307 6.17983 8.79037 6.29523 8.64579C6.29523 8.64579 7.96919 6.5437 7.99732 6.51662C8.2101 6.30202 8.32948 6.01205 8.32948 5.70985C8.32948 5.40765 8.2101 5.11768 7.99732 4.90308C7.96502 4.87183 6.04732 2.37704 6.04732 2.37704C5.8295 2.18173 5.54524 2.07714 5.25278 2.08469C4.96033 2.09224 4.68184 2.21137 4.4744 2.41766L3.27648 3.45933C-2.6006 10.526 15.39 27.5187 21.5827 21.6666L22.5317 20.5729C22.7541 20.3669 22.8876 20.0825 22.9042 19.7799C22.9207 19.4772 22.8189 19.18 22.6202 18.951Z" fill="#141F39"/>
</g>
<defs>
<clipPath id="clip0_251_914">
<rect width="25" height="25" fill="white"/>
</clipPath>
</defs>
</svg>
