<svg width="25" height="25" viewBox="0 0 25 25" fill="none" xmlns="http://www.w3.org/2000/svg">
<g clip-path="url(#clip0_251_916)">
<path d="M12.456 25.0084L11.7299 24.386C10.7289 23.5479 1.98828 15.9992 1.98828 10.4775C1.98828 4.69634 6.67485 0.00976562 12.456 0.00976562C18.2372 0.00976562 22.9237 4.69634 22.9237 10.4775C22.9237 15.9992 14.1832 23.5479 13.1863 24.3902L12.456 25.0084ZM12.456 2.27319C7.92705 2.27832 4.25688 5.94849 4.25176 10.4774C4.25176 13.9463 9.6293 19.4877 12.456 22.024C15.2828 19.4867 20.6603 13.9421 20.6603 10.4774C20.6551 5.94849 16.985 2.27837 12.456 2.27319Z" fill="#141F39"/>
<path d="M12.4579 14.6268C10.1663 14.6268 8.30859 12.769 8.30859 10.4774C8.30859 8.18584 10.1663 6.32812 12.4579 6.32812C14.7495 6.32812 16.6072 8.18584 16.6072 10.4774C16.6072 12.769 14.7496 14.6268 12.4579 14.6268ZM12.4579 8.40273C11.3121 8.40273 10.3833 9.33159 10.3833 10.4774C10.3833 11.6232 11.3121 12.5521 12.4579 12.5521C13.6037 12.5521 14.5326 11.6232 14.5326 10.4774C14.5326 9.33159 13.6038 8.40273 12.4579 8.40273Z" fill="#141F39"/>
</g>
<defs>
<clipPath id="clip0_251_916">
<rect width="25" height="25" fill="white"/>
</clipPath>
</defs>
</svg>
