<svg width="26" height="26" viewBox="0 0 26 26" fill="none" xmlns="http://www.w3.org/2000/svg">
<g clip-path="url(#clip0_175_926)">
<path d="M24.9167 23.8333H5.41667C4.55471 23.8333 3.72806 23.4909 3.11857 22.8814C2.50908 22.2719 2.16667 21.4453 2.16667 20.5833V1.08333C2.16667 0.796016 2.05253 0.520465 1.84937 0.317301C1.6462 0.114137 1.37065 0 1.08333 0C0.796016 0 0.520465 0.114137 0.317301 0.317301C0.114137 0.520465 0 0.796016 0 1.08333L0 20.5833C0.00172018 22.0194 0.572955 23.3961 1.5884 24.4116C2.60385 25.427 3.98061 25.9983 5.41667 26H24.9167C25.204 26 25.4795 25.8859 25.6827 25.6827C25.8859 25.4795 26 25.204 26 24.9167C26 24.6293 25.8859 24.3538 25.6827 24.1506C25.4795 23.9475 25.204 23.8333 24.9167 23.8333Z" fill="#141F39"/>
<path d="M6.50033 21.6667C6.78764 21.6667 7.06319 21.5526 7.26636 21.3494C7.46952 21.1463 7.58366 20.8707 7.58366 20.5834V13.0001C7.58366 12.7128 7.46952 12.4372 7.26636 12.234C7.06319 12.0309 6.78764 11.9167 6.50033 11.9167C6.21301 11.9167 5.93746 12.0309 5.73429 12.234C5.53113 12.4372 5.41699 12.7128 5.41699 13.0001V20.5834C5.41699 20.8707 5.53113 21.1463 5.73429 21.3494C5.93746 21.5526 6.21301 21.6667 6.50033 21.6667Z" fill="#141F39"/>
<path d="M10.833 10.8333V20.5833C10.833 20.8707 10.9471 21.1462 11.1503 21.3494C11.3535 21.5525 11.629 21.6667 11.9163 21.6667C12.2037 21.6667 12.4792 21.5525 12.6824 21.3494C12.8855 21.1462 12.9997 20.8707 12.9997 20.5833V10.8333C12.9997 10.546 12.8855 10.2705 12.6824 10.0673C12.4792 9.86414 12.2037 9.75 11.9163 9.75C11.629 9.75 11.3535 9.86414 11.1503 10.0673C10.9471 10.2705 10.833 10.546 10.833 10.8333Z" fill="#141F39"/>
<path d="M16.25 14.0833V20.5833C16.25 20.8707 16.3641 21.1462 16.5673 21.3494C16.7705 21.5525 17.046 21.6667 17.3333 21.6667C17.6207 21.6667 17.8962 21.5525 18.0994 21.3494C18.3025 21.1462 18.4167 20.8707 18.4167 20.5833V14.0833C18.4167 13.796 18.3025 13.5205 18.0994 13.3173C17.8962 13.1141 17.6207 13 17.3333 13C17.046 13 16.7705 13.1141 16.5673 13.3173C16.3641 13.5205 16.25 13.796 16.25 14.0833Z" fill="#141F39"/>
<path d="M21.667 9.75008V20.5834C21.667 20.8707 21.7811 21.1463 21.9843 21.3494C22.1875 21.5526 22.463 21.6667 22.7503 21.6667C23.0376 21.6667 23.3132 21.5526 23.5164 21.3494C23.7195 21.1463 23.8337 20.8707 23.8337 20.5834V9.75008C23.8337 9.46276 23.7195 9.18721 23.5164 8.98405C23.3132 8.78088 23.0376 8.66675 22.7503 8.66675C22.463 8.66675 22.1875 8.78088 21.9843 8.98405C21.7811 9.18721 21.667 9.46276 21.667 9.75008Z" fill="#141F39"/>
<path d="M6.50009 9.75012C6.78739 9.75005 7.06289 9.63588 7.26601 9.4327L11.1508 5.54786C11.3573 5.35116 11.6316 5.24144 11.9168 5.24144C12.2019 5.24144 12.4762 5.35116 12.6827 5.54786L15.0357 7.90087C15.6451 8.51015 16.4716 8.85242 17.3334 8.85242C18.1952 8.85242 19.0217 8.51015 19.6312 7.90087L25.6827 1.84937C25.88 1.64505 25.9892 1.37139 25.9867 1.08735C25.9843 0.803301 25.8703 0.531588 25.6695 0.330729C25.4686 0.12987 25.1969 0.015937 24.9129 0.0134687C24.6288 0.0110004 24.3552 0.120194 24.1508 0.317532L18.0993 6.36795C17.8962 6.57104 17.6207 6.68513 17.3334 6.68513C17.0462 6.68513 16.7707 6.57104 16.5675 6.36795L14.2145 4.01603C13.605 3.40675 12.7785 3.06448 11.9168 3.06448C11.055 3.06448 10.2285 3.40675 9.61901 4.01603L5.73418 7.90087C5.58272 8.05237 5.47958 8.24538 5.4378 8.4555C5.39601 8.66561 5.41747 8.8834 5.49944 9.08132C5.58142 9.27925 5.72024 9.44843 5.89835 9.56747C6.07646 9.68651 6.28587 9.75007 6.50009 9.75012Z" fill="#141F39"/>
</g>
<defs>
<clipPath id="clip0_175_926">
<rect width="26" height="26" fill="white"/>
</clipPath>
</defs>
</svg>
