<svg width="26" height="26" viewBox="0 0 26 26" fill="none" xmlns="http://www.w3.org/2000/svg">
<g clip-path="url(#clip0_175_935)">
<path d="M13 0C10.4288 0 7.91543 0.762437 5.77759 2.1909C3.63975 3.61935 1.97351 5.64968 0.989572 8.02512C0.00563272 10.4006 -0.251811 13.0144 0.249797 15.5362C0.751405 18.0579 1.98954 20.3743 3.80762 22.1924C5.6257 24.0105 7.94208 25.2486 10.4638 25.7502C12.9856 26.2518 15.5995 25.9944 17.9749 25.0104C20.3503 24.0265 22.3807 22.3603 23.8091 20.2224C25.2376 18.0846 26 15.5712 26 13C25.9963 9.55333 24.6254 6.24889 22.1883 3.81173C19.7511 1.37456 16.4467 0.00372784 13 0ZM13 23.8333C10.8574 23.8333 8.76286 23.198 6.98133 22.0076C5.1998 20.8172 3.81126 19.1253 2.99131 17.1457C2.17136 15.1662 1.95683 12.988 2.37483 10.8865C2.79284 8.78506 3.82461 6.85475 5.33968 5.33968C6.85475 3.82461 8.78507 2.79283 10.8865 2.37483C12.988 1.95682 15.1662 2.17136 17.1457 2.99131C19.1253 3.81125 20.8172 5.19979 22.0076 6.98132C23.198 8.76286 23.8333 10.8574 23.8333 13C23.8302 15.8722 22.6878 18.6259 20.6568 20.6568C18.6259 22.6878 15.8722 23.8302 13 23.8333ZM13 7.58333C12.2343 7.58188 11.4927 7.85148 10.9067 8.34437C10.3207 8.83727 9.92809 9.52165 9.79834 10.2763C9.66858 11.031 9.8101 11.8072 10.1978 12.4675C10.5855 13.1278 11.1944 13.6296 11.9167 13.884V17.3333C11.9167 17.6207 12.0308 17.8962 12.234 18.0994C12.4371 18.3025 12.7127 18.4167 13 18.4167C13.2873 18.4167 13.5629 18.3025 13.766 18.0994C13.9692 17.8962 14.0833 17.6207 14.0833 17.3333V13.884C14.8056 13.6296 15.4145 13.1278 15.8022 12.4675C16.1899 11.8072 16.3314 11.031 16.2017 10.2763C16.0719 9.52165 15.6793 8.83727 15.0933 8.34437C14.5073 7.85148 13.7657 7.58188 13 7.58333ZM13 11.9167C12.7857 11.9167 12.5763 11.8531 12.3981 11.7341C12.22 11.6151 12.0811 11.4459 11.9991 11.2479C11.9171 11.05 11.8957 10.8321 11.9375 10.622C11.9793 10.4118 12.0825 10.2188 12.234 10.0673C12.3855 9.91579 12.5785 9.81262 12.7887 9.77082C12.9988 9.72902 13.2166 9.75047 13.4146 9.83246C13.6125 9.91446 13.7817 10.0533 13.9008 10.2315C14.0198 10.4096 14.0833 10.6191 14.0833 10.8333C14.0833 11.1207 13.9692 11.3962 13.766 11.5994C13.5629 11.8025 13.2873 11.9167 13 11.9167Z" fill="#141F39"/>
</g>
<defs>
<clipPath id="clip0_175_935">
<rect width="26" height="26" fill="white"/>
</clipPath>
</defs>
</svg>
