<svg width="20" height="20" viewBox="0 0 20 20" fill="none" xmlns="http://www.w3.org/2000/svg">
<g clip-path="url(#clip0_1_4552)">
<path d="M19.266 0.734991C18.9673 0.432597 18.5956 0.212371 18.1868 0.0955883C17.7781 -0.0211941 17.3461 -0.0305844 16.9327 0.0683246L3.59938 2.87666C2.83153 2.98196 2.10832 3.29956 1.51121 3.79367C0.914105 4.28778 0.466806 4.93879 0.219691 5.67338C-0.027424 6.40797 -0.0645403 7.19696 0.112522 7.9515C0.289584 8.70605 0.673792 9.39617 1.22188 9.94416L2.65355 11.375C2.73103 11.4525 2.79248 11.5444 2.83438 11.6457C2.87628 11.7469 2.8978 11.8554 2.89771 11.965V14.605C2.89955 14.9762 2.985 15.3422 3.14771 15.6758L3.14105 15.6817L3.16271 15.7033C3.40689 16.1943 3.8057 16.5913 4.29771 16.8333L4.31938 16.855L4.32521 16.8483C4.65885 17.011 5.02485 17.0965 5.39605 17.0983H8.03605C8.25692 17.0982 8.46883 17.1857 8.62521 17.3417L10.056 18.7725C10.4398 19.1605 10.8966 19.4687 11.4 19.6794C11.9035 19.8901 12.4436 19.999 12.9894 20C13.4442 19.9994 13.8959 19.9251 14.3269 19.78C15.0547 19.541 15.7014 19.1033 16.1937 18.5164C16.6861 17.9295 17.0047 17.2167 17.1135 16.4583L19.926 3.09582C20.0301 2.67886 20.024 2.24201 19.9082 1.82813C19.7925 1.41425 19.5712 1.03755 19.266 0.734991ZM3.83355 10.1983L2.40105 8.76749C2.06748 8.44196 1.83369 8.02803 1.72712 7.57429C1.62055 7.12055 1.64561 6.64582 1.79938 6.20582C1.94846 5.75443 2.22405 5.35535 2.59338 5.05604C2.9627 4.75674 3.41022 4.56981 3.88271 4.51749L17.0835 1.73832L4.56271 14.2608V11.965C4.56397 11.6369 4.50018 11.3119 4.37502 11.0086C4.24986 10.7054 4.06582 10.43 3.83355 10.1983ZM15.476 16.1733C15.4121 16.6336 15.2211 17.0669 14.9245 17.4247C14.6279 17.7824 14.2374 18.0504 13.797 18.1986C13.3565 18.3468 12.8835 18.3693 12.431 18.2635C11.9785 18.1578 11.5644 17.928 11.2352 17.6L9.80188 16.1667C9.57052 15.934 9.29533 15.7496 8.99223 15.624C8.68913 15.4984 8.36413 15.4342 8.03605 15.435H5.74021L18.2627 2.91666L15.476 16.1733Z" fill="white"/>
</g>
<defs>
<clipPath id="clip0_1_4552">
<rect width="20" height="20" fill="white"/>
</clipPath>
</defs>
</svg>
