<svg width="25" height="25" viewBox="0 0 25 25" fill="none" xmlns="http://www.w3.org/2000/svg">
<g clip-path="url(#clip0_1_2422)">
<path d="M7.09759 0.665283H4.05577C2.98011 0.665283 1.94851 1.09259 1.18791 1.85319C0.427303 2.61379 0 3.64539 0 4.72105L0 7.76287C0 8.83853 0.427303 9.87013 1.18791 10.6307C1.94851 11.3913 2.98011 11.8186 4.05577 11.8186H7.09759C8.17325 11.8186 9.20485 11.3913 9.96545 10.6307C10.7261 9.87013 11.1534 8.83853 11.1534 7.76287V4.72105C11.1534 3.64539 10.7261 2.61379 9.96545 1.85319C9.20485 1.09259 8.17325 0.665283 7.09759 0.665283ZM9.12547 7.76287C9.12547 8.3007 8.91182 8.8165 8.53152 9.1968C8.15122 9.57711 7.63542 9.79076 7.09759 9.79076H4.05577C3.51794 9.79076 3.00214 9.57711 2.62184 9.1968C2.24153 8.8165 2.02788 8.3007 2.02788 7.76287V4.72105C2.02788 4.18322 2.24153 3.66742 2.62184 3.28712C3.00214 2.90682 3.51794 2.69317 4.05577 2.69317H7.09759C7.63542 2.69317 8.15122 2.90682 8.53152 3.28712C8.91182 3.66742 9.12547 4.18322 9.12547 4.72105V7.76287Z" fill="#141F39"/>
<path d="M23.7767 3.37422L21.6258 1.22333C20.8652 0.462725 19.8336 0.0354221 18.7579 0.0354222C17.6823 0.0354221 16.6507 0.462725 15.8901 1.22333L13.7392 3.37422C12.9786 4.13483 12.5513 5.16643 12.5513 6.24208C12.5513 7.31774 12.9786 8.34934 13.7392 9.10994L15.8901 11.2608C16.6507 12.0214 17.6823 12.4487 18.7579 12.4487C19.8336 12.4487 20.8652 12.0214 21.6258 11.2608L23.7767 9.10994C24.5373 8.34934 24.9646 7.31774 24.9646 6.24208C24.9646 5.16643 24.5373 4.13483 23.7767 3.37422ZM20.1919 9.82691C19.8116 10.2072 19.2958 10.4209 18.7579 10.4209C18.2201 10.4209 17.7043 10.2072 17.324 9.82691L15.1731 7.67601C14.7928 7.29571 14.5792 6.77991 14.5792 6.24208C14.5792 5.70426 14.7928 5.18846 15.1731 4.80815L17.324 2.65726C17.7043 2.27696 18.2201 2.06331 18.7579 2.06331C19.2958 2.06331 19.8116 2.27696 20.1919 2.65726L22.3428 4.80815C22.7231 5.18846 22.9367 5.70426 22.9367 6.24208C22.9367 6.77991 22.7231 7.29571 22.3428 7.67601L20.1919 9.82691Z" fill="#38DA71"/>
<path d="M7.09759 13.8467H4.05577C2.98011 13.8467 1.94851 14.274 1.18791 15.0346C0.427303 15.7952 0 16.8268 0 17.9024L0 20.9443C0 22.0199 0.427303 23.0515 1.18791 23.8121C1.94851 24.5727 2.98011 25 4.05577 25H7.09759C8.17325 25 9.20485 24.5727 9.96545 23.8121C10.7261 23.0515 11.1534 22.0199 11.1534 20.9443V17.9024C11.1534 16.8268 10.7261 15.7952 9.96545 15.0346C9.20485 14.274 8.17325 13.8467 7.09759 13.8467ZM9.12547 20.9443C9.12547 21.4821 8.91182 21.9979 8.53152 22.3782C8.15122 22.7585 7.63542 22.9722 7.09759 22.9722H4.05577C3.51794 22.9722 3.00214 22.7585 2.62184 22.3782C2.24153 21.9979 2.02788 21.4821 2.02788 20.9443V17.9024C2.02788 17.3646 2.24153 16.8488 2.62184 16.4685C3.00214 16.0882 3.51794 15.8746 4.05577 15.8746H7.09759C7.63542 15.8746 8.15122 16.0882 8.53152 16.4685C8.91182 16.8488 9.12547 17.3646 9.12547 17.9024V20.9443Z" fill="#141F39"/>
<path d="M20.2789 13.8467H17.237C16.1614 13.8467 15.1298 14.274 14.3692 15.0346C13.6086 15.7952 13.1813 16.8268 13.1813 17.9024V20.9443C13.1813 22.0199 13.6086 23.0515 14.3692 23.8121C15.1298 24.5727 16.1614 25 17.237 25H20.2789C21.3545 25 22.3861 24.5727 23.1467 23.8121C23.9073 23.0515 24.3346 22.0199 24.3346 20.9443V17.9024C24.3346 16.8268 23.9073 15.7952 23.1467 15.0346C22.3861 14.274 21.3545 13.8467 20.2789 13.8467ZM22.3067 20.9443C22.3067 21.4821 22.0931 21.9979 21.7128 22.3782C21.3325 22.7585 20.8167 22.9722 20.2789 22.9722H17.237C16.6992 22.9722 16.1834 22.7585 15.8031 22.3782C15.4228 21.9979 15.2092 21.4821 15.2092 20.9443V17.9024C15.2092 17.3646 15.4228 16.8488 15.8031 16.4685C16.1834 16.0882 16.6992 15.8746 17.237 15.8746H20.2789C20.8167 15.8746 21.3325 16.0882 21.7128 16.4685C22.0931 16.8488 22.3067 17.3646 22.3067 17.9024V20.9443Z" fill="#141F39"/>
</g>
<defs>
<clipPath id="clip0_1_2422">
<rect width="25" height="25" fill="white"/>
</clipPath>
</defs>
</svg>
