<svg width="25" height="25" viewBox="0 0 25 25" fill="none" xmlns="http://www.w3.org/2000/svg">
<g clip-path="url(#clip0_1_2414)">
<path d="M8.33333 0H3.125C2.2962 0 1.50134 0.32924 0.915291 0.915291C0.32924 1.50134 0 2.2962 0 3.125L0 8.33333H3.125L3.10313 11.4583L5.18646 11.4688L5.20833 8.33333H8.33333V5.19167L11.4583 5.20833L11.4688 3.125L8.33333 3.10833V0ZM6.25 6.25H2.08333V3.125C2.08333 2.84873 2.19308 2.58378 2.38843 2.38843C2.58378 2.19308 2.84873 2.08333 3.125 2.08333H6.25V6.25Z" fill="#141F39"/>
<path d="M21.875 0H16.6667V3.125L13.5469 3.10833L13.5365 5.19167L16.6667 5.20833V8.33333H19.8073L19.7917 11.4583L21.875 11.4688L21.8907 8.33333H25V3.125C25 2.2962 24.6708 1.50134 24.0848 0.915291C23.4987 0.32924 22.7038 0 21.875 0ZM22.9167 6.25H18.75V2.08333H21.875C22.1513 2.08333 22.4163 2.19308 22.6116 2.38843C22.807 2.58378 22.9167 2.84873 22.9167 3.125V6.25Z" fill="#38DA71"/>
<path d="M21.8968 13.5468L19.8135 13.5364L19.7968 16.6666H16.6666V19.8083L13.5468 19.7916L13.5416 21.8749L16.6666 21.8916V24.9999H21.875C22.7038 24.9999 23.4986 24.6707 24.0847 24.0846C24.6707 23.4986 25 22.7037 25 21.8749V16.6666H21.875L21.8968 13.5468ZM22.9166 21.8749C22.9166 22.1512 22.8069 22.4161 22.6115 22.6115C22.4162 22.8068 22.1512 22.9166 21.875 22.9166H18.75V18.7499H22.9166V21.8749Z" fill="#141F39"/>
<path d="M8.33333 16.6667H5.19271L5.20833 13.547L3.125 13.5417L3.10937 16.6667H0V21.8751C0 22.7039 0.32924 23.4987 0.915291 24.0848C1.50134 24.6708 2.2962 25.0001 3.125 25.0001H8.33333V21.8751L11.4583 21.897L11.4688 19.8136L8.33333 19.797V16.6667ZM6.25 22.9167H3.125C2.84873 22.9167 2.58378 22.807 2.38843 22.6117C2.19308 22.4163 2.08333 22.1513 2.08333 21.8751V18.7501H6.25V22.9167Z" fill="#141F39"/>
</g>
<defs>
<clipPath id="clip0_1_2414">
<rect width="25" height="25" fill="white"/>
</clipPath>
</defs>
</svg>
