<svg width="23" height="16" viewBox="0 0 23 16" fill="none" xmlns="http://www.w3.org/2000/svg">
<path d="M9.66 11.34C9.66 8.61 7.91 7.07 5.74 7.07C4.9 7.07 4.27 7.28 3.78 7.56C3.78 5.32 5.74 3.5 8.47 2.94V0C3.57 0.7 0 4.76 0 9.87C0 13.65 2.24 15.96 5.04 15.96C7.84 15.96 9.66 14 9.66 11.34ZM22.19 11.34C22.19 8.61 20.37 7.07 18.2 7.07C17.43 7.07 16.8 7.21 16.31 7.49C16.31 5.32 18.27 3.5 21 2.94V0C16.1 0.7 12.46 4.76 12.46 9.87C12.46 13.65 14.7 15.96 17.57 15.96C20.3 15.96 22.19 14 22.19 11.34Z" fill="#10393B"/>
</svg>
