<svg width="20" height="20" viewBox="0 0 20 20" fill="none" xmlns="http://www.w3.org/2000/svg">
<path d="M0.9375 12.2406H5.77744L5.21011 16.2833C5.19073 16.4215 5.26535 16.5558 5.39291 16.6122C5.43365 16.6302 5.47684 16.6391 5.51941 16.6391C5.61005 16.6391 5.6987 16.5997 5.75943 16.5268L9.42978 12.1283C9.47678 12.0721 9.50241 12.0013 9.50241 11.9281V3.6734C9.50241 3.50067 9.36249 3.3609 9.18991 3.3609H0.9375C0.764923 3.3609 0.625 3.50067 0.625 3.6734V11.9281C0.625 12.1008 0.764923 12.2406 0.9375 12.2406ZM1.25 3.9859H8.87741V11.8149L5.98114 15.2856L6.44623 11.9714C6.45889 11.882 6.43188 11.7914 6.37253 11.723C6.31332 11.6547 6.22726 11.6156 6.13678 11.6156H1.25V3.9859Z" fill="#3921F5"/>
<path d="M19.0625 3.3609H10.8101C10.6375 3.3609 10.4976 3.50067 10.4976 3.6734V11.9281C10.4976 12.1008 10.6375 12.2406 10.8101 12.2406H15.65L15.0827 16.2833C15.0633 16.4215 15.1379 16.5558 15.2655 16.6122C15.3062 16.6302 15.3494 16.6391 15.392 16.6391C15.4826 16.6391 15.5713 16.5997 15.632 16.5268L19.3023 12.1283C19.3493 12.0721 19.375 12.0013 19.375 11.9281V3.6734C19.375 3.50067 19.235 3.3609 19.0625 3.3609ZM18.75 11.8149L15.8537 15.2856L16.3188 11.9714C16.3315 11.882 16.3044 11.7914 16.2451 11.723C16.1859 11.6547 16.0998 11.6156 16.0093 11.6156H11.1226V3.9859H18.75V11.8149Z" fill="#3921F5"/>
</svg>
