<?xml version="1.0" encoding="UTF-8"?>
<svg width="1200pt" height="1200pt" version="1.1" viewBox="0 0 1200 1200" xmlns="http://www.w3.org/2000/svg">
 <g fill="#013e89">
  <path d="m481.24 667.18h35.93v27.324h-35.93z"/>
  <path d="m1079.1 493.1h-381.54c-7.1758-17.477-18.816-32.559-33.82-43.914 5.6016-10.297 8.7891-22.098 8.7891-34.625 0-40.047-32.543-72.629-72.547-72.629s-72.547 32.582-72.547 72.629c0 12.539 3.1914 24.344 8.8008 34.645-26.102 19.828-41.832 50.914-41.832 84.215v30.543c0 21.758 17.684 39.461 39.414 39.461h39.613v-27.324h-39.613c-6.6836 0-12.117-5.4414-12.117-12.133v-30.543c0-25.055 12.012-48.414 31.883-63.082 12.59 10.512 28.77 16.852 46.402 16.852 17.629 0 33.805-6.332 46.387-16.836 8.2891 6.1523 15.336 13.922 20.656 22.75h-7.543c-29.891 0-54.207 24.344-54.207 54.27v119.82h-51.73v27.324h51.73v191.92c0 29.922 24.32 54.27 54.207 54.27h56.824v86.172c-0.36328 11.297 14.117 18.016 22.496 10.398l113.24-96.57h227.06c29.887-0.007813 54.203-24.352 54.203-54.277v-339.07c-0.003906-29.922-24.32-54.27-54.211-54.27zm-342.02 289.23c-4.7695-14.242-7.1875-29.137-7.1875-44.266v-42.328c0-76.953 62.535-139.55 139.4-139.55 66.641-1.0977 128.1 51.449 137.64 117.36l-26.949 4.332c-8.625-53.797-56.211-94.363-110.69-94.363-61.812 0-112.11 50.348-112.11 112.23v42.328c0 12.172 1.9414 24.145 5.7695 35.582zm132.21-140.26c-14.965 0-28.863 6.0039-39.133 16.91l-19.859-18.75c15.258-16.195 36.762-25.484 58.992-25.484 44.707 0 81.082 36.414 81.082 81.172v41.965c0 28.625-15.32 55.438-39.98 69.98l-13.852-23.547c16.371-9.6484 26.535-27.445 26.535-46.438l-0.003906-41.965c0-29.688-24.129-53.844-53.785-53.844zm0 149.65v27.324c-44.707 0-81.082-36.414-81.082-81.172v-41.961c0-7.168 0.93359-14.285 2.7812-21.148l26.359 7.1016c-1.2227 4.5508-1.8438 9.2773-1.8438 14.047v41.965c0 29.691 24.125 53.844 53.785 53.844zm-13.648-43.953v-61.742h27.297v61.742zm153.05-9.707c0 76.953-62.535 139.56-139.4 139.56-44.133 0-86.141-21.328-112.38-57.055l21.992-16.184c21.113 28.75 54.898 45.914 90.383 45.914 61.812 0 112.11-50.348 112.11-112.23l-0.003907-21.172h27.297z"/>
  <path d="m305.5 1133.3c-131.69 0-238.83-107.26-238.83-239.1 0-131.84 107.14-239.1 238.84-239.1 131.7 0 238.84 107.26 238.84 239.1-0.003906 131.84-107.14 239.1-238.84 239.1zm0-450.88c-116.64 0-211.54 95-211.54 211.78 0 116.77 94.898 211.78 211.54 211.78s211.54-95 211.54-211.78c0-116.77-94.895-211.78-211.54-211.78z"/>
  <path d="m882.05 66.668h-564.11c-32.609 0-59.137 26.559-59.137 59.207v499.8h27.297l-0.003907-499.8c0-17.578 14.285-31.883 31.844-31.883h112.41v33.887c0 32.648 26.531 59.207 59.141 59.207h221c32.609 0 59.141-26.559 59.141-59.207v-33.887h112.41c17.559 0 31.844 14.301 31.844 31.883v273.01h27.297v-273.01c-0.003906-32.648-26.531-59.207-59.141-59.207z"/>
  <path d="m913.89 430.05h27.297v31.883h-27.297z"/>
  <path d="m882.05 1132.4h-419.43v-27.324h419.43c17.559 0 31.844-14.301 31.844-31.883v-100.59h27.297v100.59c-0.003906 32.648-26.531 59.207-59.141 59.207z"/>
  <path d="m415.6 625.67h-27.297v-315.62c0-32.648 26.531-59.207 59.141-59.207h305.11c32.609 0 59.141 26.559 59.141 59.207v151.88h-27.297v-151.88c0-17.578-14.285-31.883-31.844-31.883l-305.11 0.003906c-17.559 0-31.844 14.301-31.844 31.883z"/>
  <path d="m396.48 858.46v-37.098c0-50.223-40.816-91.086-90.984-91.086s-90.984 40.863-90.984 91.086v37.098c-16.812 3.2109-29.57 18.016-29.57 35.77v109.3c0 20.09 16.324 36.434 36.395 36.434h168.32c20.07 0 36.395-16.344 36.395-36.434v-109.3c0.003906-17.754-12.754-32.562-29.566-35.77zm-77.336 72.566v36.07h-27.297v-36.07zm-13.648-173.43c35.117 0 63.691 28.602 63.691 63.762v36.434l-127.38 0.003906v-36.434c0-35.16 28.57-63.766 63.688-63.766z"/>
 </g>
</svg>
