<?xml version="1.0" encoding="UTF-8"?>
<svg width="1200pt" height="1200pt" version="1.1" viewBox="0 0 1200 1200" xmlns="http://www.w3.org/2000/svg">
 <g fill="#013e89">
  <path d="m1094.5 961.27c-14.547-49.273-60.363-83.637-111.45-83.637-9.2734 0-18.363 1.0898-26.91 3.2734-9.2734 2.3633-15.09 11.816-12.727 21.09s11.816 15.09 21.09 12.727c5.8164-1.4531 12.184-2.1836 18.547-2.1836 35.816 0 68 24 78 58.363 3.2734 11.637 13.816 52 13.816 86.727 0 9.6367 7.8164 17.453 17.453 17.453s17.453-7.8164 17.453-17.453c-0.17969-39.27-11.633-83.449-15.27-96.359z"/>
  <path d="m912.18 954.36c5.8164-10.727 13.816-19.637 23.453-26.547 7.8164-5.6367 9.6367-16.547 4-24.363s-16.547-9.6367-24.363-4c-13.816 10-25.273 22.727-33.637 38-14.91 27.09-18.363 58.363-9.8164 88 3.0898 10.91 6.3633 27.816 6.3633 32 0 9.6367 7.8164 17.453 17.453 17.453s17.453-7.8164 17.453-17.453c0-10.363-5.0898-32.547-7.6367-41.453-6.1797-20.727-3.6367-42.727 6.7305-61.637z"/>
  <path d="m1015.1 935.09c-15.637-8.5469-33.637-10.547-50.727-5.6367-35.09 10.184-55.453 47.09-45.453 82.363 2.9062 10 8.3633 33.637 8.3633 45.82 0 9.6367 7.8164 17.453 17.453 17.453 9.6367 0 17.453-7.8164 17.453-17.453 0-18.184-6.9102-46-9.6367-55.273-4.9102-16.727 4.9102-34.363 21.453-39.273 8.1836-2.3633 16.727-1.4531 24.363 2.7266 7.4531 4 12.727 10.727 15.273 19.09 2.5469 8.3633 12 44.91 12 72.547 0 9.6367 7.8164 17.453 17.453 17.453 9.6367 0 17.453-7.8164 17.453-17.453 0-37.453-13.453-82.363-13.453-82.547-5.0859-17.09-16.359-31.09-31.996-39.816z"/>
  <path d="m978 976.73c-9.2734 2.7266-14.547 12.363-11.816 21.637 0.18359 0.36328 10.184 35.453 10.184 59.09 0 9.6367 7.8164 17.453 17.453 17.453 9.6367 0 17.453-7.8164 17.453-17.453 0-28.727-11.09-67.273-11.637-68.91-2.7266-9.0898-12.363-14.543-21.637-11.816z"/>
  <path d="m1005.8 801.27v-59.273c0-53.09-43.273-96.363-96.363-96.363h-246.36v-122h225.45c57.273 0 103.82-46.547 103.82-103.82v-31.09c37.453-3.6367 73.273-18.363 102.18-42.91 42-35.273 66.184-87.09 66.184-142.18 0-102.18-83.453-185.45-185.82-185.45-102.36 0-185.64 83.27-185.64 185.63 0 55.637 24.547 107.82 67.453 143.27 28.727 23.816 64 38.184 100.91 41.637v31.09c0 38-30.91 68.91-68.91 68.91h-225.45l-0.18359-296.73v-0.91016c-3.0898-63.637-55.637-113.45-119.45-113.45h-9.0898-0.18359-363.27-0.18359-25.09c-66.184 0-119.82 53.816-119.82 119.82v751.64c0 16.363 3.0898 32.184 9.4531 46.727 2.5469 5.6367 5.6367 11.637 9.8164 18 0.36328 0.54688 0.72656 1.2734 1.0898 1.8164 6.1836 9.4531 14.184 18.184 23.09 25.453 6.3633 5.2734 12.91 9.6367 18.727 12.727 6.3633 3.6367 13.273 6.7266 21.637 9.4531 11.453 3.4531 23.273 5.2734 35.453 5.2734h69.637l-0.54688 62c0 28.363 23.09 51.273 51.273 51.273h282.55c28 0 51.09-22.727 51.273-50.91l0.54688-76.91c6.7266-3.6367 13.09-7.6367 18.727-12.363 3.4531-2.5469 6.7266-5.4531 9.0898-8.1836 22.727-22.547 35.09-52.363 35.09-84.363v-32.363l-0.18359-236h246.36c33.816 0 61.453 27.637 61.453 61.453v58.363c-99.637 6.1836-178.91 89.09-178.91 190.36 0 105.27 85.637 190.91 190.91 190.91 105.27 0 190.91-85.637 190.91-190.91 0.55469-97.625-73.082-178.17-167.63-189.62zm-30.906-748.18c83.09 0 150.91 67.637 150.91 150.91 0 28.727-8.1836 56.363-23.09 80.184-17.637-24.184-41.453-42.363-68.91-53.09 16-15.273 26-36.727 26-60.727 0-46.363-37.816-84.184-84.184-84.184-46.363 0-84.184 37.816-84.184 84.184 0 23.816 10 45.273 26 60.547-27.637 11.09-51.637 29.816-69.273 54.547-15.453-24-24-52.184-24-81.637-0.17969-83.098 67.637-150.73 150.73-150.73zm0.72656 166.55c-27.273 0-49.273-22.184-49.273-49.273 0-27.273 22.184-49.273 49.273-49.273 27.09 0 49.273 22.184 49.273 49.273 0 27.09-22 49.273-49.273 49.273zm-104.55 93.637c22.363-36.363 61.273-58.727 104.36-58.727 42.727 0 81.453 22 104 57.816-2.5469 2.3633-4.9102 4.9102-7.6367 7.0898-27.09 22.91-61.453 35.453-97.09 35.453-35.453 0-68.727-12-96-34.547-2.543-2.3594-5.0898-4.7227-7.6367-7.0859zm-368.91-200.55-28.184 43.816c-2.9102 4.3672-8.7266 7.0938-15.09 7.0938h-212.36c-6.3633 0-12.184-2.7266-14.91-7.0898l-28.363-43.82zm-356.37 0h15.816l40.547 62.727c9.2734 14.184 26.184 23.09 44.363 23.09h212.55c18.184 0 35.09-8.9102 44.363-23.09l40.547-62.727c44.91 0.18359 82 35.09 84.363 79.816l0.36328 706.55h-39.816c15.453-91.273 7.8164-246.36 7.4531-252.18l0.36328-15.09c0.18359-12.184-2.9102-24-9.2734-33.816-10.727-16.91-29.273-27.453-50-27.816-9.6367 0-19.273 2-27.816 5.8164-2-12-7.6367-23.273-16.363-32.184-10.363-10.727-23.816-16.91-38.547-18-1.4531-0.36328-3.0898-0.54688-4.5469-0.54688-1.4531 0-2.9102 0.36328-4.3633 0.54688 23.453-31.816 36.547-70.547 36.547-110.91 0-103.09-83.816-186.91-186.91-186.91-103.09 0.003906-186.91 83.82-186.91 186.73 0 72.184 40.91 136.91 105.27 168l-2 137.82c0 5.2734-2.9102 8.3633-4.5469 9.8164-2.9102 2.5469-6.9102 3.6367-10.547 3.0898l-31.453-5.0898c-0.36328 0-2.3633-0.36328-2.9102-0.36328-2.1836-0.18359-4.3633-0.36328-6.1836-0.36328-32.91 0-60.91 22.547-66.363 54.727-3.2734 18 1.0898 36.184 12 50.91 10.727 14.727 27.273 24.363 45.273 26.547l74.727 9.0898c4.1836 0.72656 13.09 12.547 20 30l-180.91 0.003906v-701.09c0-46.906 38-85.09 84.906-85.09zm273.82 389.09c-1.4531-3.6367-2.9102-7.0898-5.0898-10.363-10.91-17.09-29.453-27.637-50.184-28.184-9.8164 0-18.91 2-27.09 5.8164l1.0898-104.18c0.18359-12.547-3.0898-24.363-9.4531-33.637-10.727-17.273-29.453-27.816-50-28-20.91-0.72656-40.184 9.6367-51.816 27.09-3.0898 4.5469-5.4531 9.2734-7.2734 14.91-2 6.3633-2.9102 12-2.9102 17.09l-2.7266 180.55c-43.637-27.453-70.91-75.273-70.91-128.36 0-83.816 68.184-152 152-152 83.816 0 152 68.184 152 152 0 31.645-9.8203 62.008-27.637 87.277zm-190 255.27c10.547-9.0898 16.727-22.184 16.91-36l2.1836-149.64v-0.18359l3.0898-208.55c0-2 0.36328-4.3633 1.2734-6.9102 0.72656-2.1836 1.8164-4.1836 3.0898-6.1836 4.9102-7.4531 13.637-11.816 22.184-11.637 8.7266 0.18359 16.547 4.3633 21.273 12 2.5469 3.8164 4 8.7266 3.8164 14.184l-1.6367 158.55v0.18359l-2 122c-0.18359 9.6367 7.4531 17.637 17.09 17.816h0.36328c9.4531 0 17.273-7.6367 17.453-17.09l2.1836-122.36c0.36328-14 12.91-24.91 26.91-25.09 8.7266 0.18359 16.727 4.7266 21.273 12 2.5469 4 3.8164 8.7266 3.8164 14l-0.18359 17.273v0.54688l-0.54687 42.184v0.18359c0 0.18359-0.18359 0.36328-0.18359 0.36328l-1.2734 80.184c-0.18359 9.6367 7.4531 17.637 17.09 17.816h0.36328c9.4531 0 17.273-7.6367 17.453-17.09l1.2734-80c0-0.18359 0.18359-0.36328 0.18359-0.54688v-0.36328c0.18359-6.3633 2.9102-12.363 8-17.09 4.5469-4.1836 10.363-6.9102 16.363-7.4531 0.91016 0.18359 1.8164 0.18359 2.7266 0.18359 6.7266 0 13.09 2.7266 17.816 7.6367 4.7266 4.9102 7.4531 11.453 7.2734 18l-1.0898 42.547c0 0.54687 0.18359 0.91016 0.18359 1.4531l-1.0898 66.184c-0.18359 9.6367 7.4531 17.637 17.09 17.816h0.36328c9.4531 0 17.273-7.6367 17.453-17.09l1.0898-66.727c0-0.36328-0.18359-0.72656-0.18359-0.91016 0.91016-13.453 12.547-24.184 27.09-24.184 8.9102 0.18359 16.727 4.5469 21.273 11.637 2.7266 4.1836 4 9.2734 4 14.547l-0.36328 16.363c0.18359 1.8164 9.0898 184.18-10.91 264.91-2.9102 11.637-5.8164 18.547-8 22.547l-257.27-4.1836-0.54688-6c-0.36328-3.4531-1.0898-7.6367-2-12-0.72656-2.9102-16.547-73.453-56.547-78.363l-74.727-9.0898c-8.7266-1.0898-16.363-5.6367-21.453-12.727-5.2734-7.0898-7.2734-15.637-5.6367-24.363 2.5469-14.727 15.637-25.816 31.09-25.816 1.0898 0 2.1836 0.18359 3.2734 0.18359l32.547 5.0898c13.828 2.3516 28.012-1.6484 38.738-10.742zm-14.184 249.27-0.18359 27.273h-69.816c-8.7266 0-17.09-1.2734-24.91-3.6367-5.8164-1.8164-10.547-3.8164-15.453-6.7266-4.3633-2.1836-8.9102-5.2734-13.453-9.0898-5.8164-4.7266-11.09-10.363-15.273-16.363-0.18359-0.36328-0.54688-0.91016-0.72656-1.2734-3.4531-5.4531-6.1836-10.184-8-14.547-4.3633-10.184-6.5469-21.273-6.5469-32.91v-15.09h177.82c-13.453 6.1836-22.91 19.637-22.91 35.09zm349.46 124.36c0 9.0898-7.2734 16.184-16.363 16.184h-282.73c-9.0898 0-16.363-7.2734-16.363-16.363l1.2734-161.27c0-2.5469 2.3633-4 4.3633-4l291.45 5.0898h4c1.0898 0 2-0.18359 3.0898-0.36328l7.8164 0.18359c0.36328 0 0.72656 0.18359 0.91016 0.18359 2.1836 0.18359 3.6367 2 3.6367 4.3633zm38.18-121.45c-0.72656 0.72656-1.4531 1.4531-2.3633 2.1836 0 0.18359-0.18359 0.18359-0.18359 0.36328l0.18359-36.91v-0.18359c0-15.816-9.0898-29.273-22.547-35.637 0.54687-1.6367 1.0898-3.4531 1.8164-5.0898h48.363v15.09c0.003906 22.547-8.7227 43.637-25.27 60.184zm380 137.64c-86 0-156.18-70-156.18-156.18 0-86.184 70-156.18 156.18-156.18s156.18 70 156.18 156.18c0 86.184-70.184 156.18-156.18 156.18z"/>
 </g>
</svg>
