<?xml version="1.0" encoding="UTF-8"?>
<svg width="1200pt" height="1200pt" version="1.1" viewBox="0 0 1200 1200" xmlns="http://www.w3.org/2000/svg">
 <g fill="#013e89">
  <path d="m858 738v-6c0-30-24-54-54-54s-54 24-54 54v6c-19.801 0-36 16.199-36 36v72c0 19.801 16.199 36 36 36h108c19.801 0 36-16.199 36-36v-72c0-19.801-16.199-36-36-36zm-84-6c0-16.801 13.199-30 30-30s30 13.199 30 30v6h-60zm96 114c0 6.6016-5.3984 12-12 12h-108c-6.6016 0-12-5.3984-12-12v-72c0-6.6016 5.3984-12 12-12h108c6.6016 0 12 5.3984 12 12z"/>
  <path d="m828 810c0 13.254-10.746 24-24 24s-24-10.746-24-24 10.746-24 24-24 24 10.746 24 24"/>
  <path d="m960 663-132-75c-6.6016-3.6016-14.398-6-24-6s-16.801 1.8008-24 6l-132 75.602c-15 8.3984-24 24.602-24 41.398v85.801c0 57.602 31.199 111.6 81 140.4l93 51.602c1.8008 1.1992 3.6016 1.8008 6 1.8008s4.1992-0.60156 6-1.8008l93-51.602c49.801-28.801 81-82.801 81-140.4v-85.801c0-17.398-9-33-24-42zm0 127.2c0 49.199-26.398 94.801-69 119.4l-87 48.602-87-48.602c-42.602-24.602-69-70.199-69-119.4v-85.801c0-8.3984 4.8008-16.801 12-21l132-75.602c3-1.8008 7.1992-2.3984 12-2.3984s9 0.60156 12 2.3984l132 75.602c7.1992 4.1992 12 12 12 21z"/>
  <path d="m222 454.2 138 78c1.8008 1.1992 3.6016 1.8008 6 1.8008s4.1992-0.60156 6-1.8008l57-32.398 46.801 26.398-79.801 45.602c-3.6016 2.3984-6 6-6 10.199v138c0 4.1992 2.3984 8.3984 6 10.199l138 78c1.8008 1.1992 3.6016 1.8008 6 1.8008s4.1992-0.60156 6-1.8008l48-27c6-3 7.8008-10.801 4.8008-16.199-3-6-10.801-7.8008-16.199-4.8008l-30 16.801v-110.4l132-74.398 0.60156-0.60156c0.60156 0 0.60156-0.60156 1.1992-0.60156 0.60156 0 0.60156-0.60156 0.60156-0.60156l0.60156-0.60156c0-0.60156 0.60156-0.60156 0.60156-1.1992l0.60156-0.60156c0-0.60156 0.60156-0.60156 0.60156-1.1992 0-0.60156 0-0.60156 0.60156-1.1992v-1.1992-1.1992-1.1992-1.1992-1.1992-1.1992c0-0.60156 0-0.60156-0.60156-1.1992 0-0.60156-0.60156-0.60156-0.60156-1.1992l-0.60156-0.60156c0-0.60156-0.60156-0.60156-0.60156-1.1992 0-0.60156-0.60156-0.60156-0.60156-0.60156l-0.60156-0.60156c-0.60156 0-0.60156-0.60156-1.1992-0.60156l-0.60156-0.60156-79.199-45 46.801-26.398 57 32.398c1.8008 1.1992 3.6016 1.8008 6 1.8008s4.1992-0.60156 6-1.8008l138-78c3.6016-2.3984 6-6 6-10.199l-0.003906-138.6c0-4.1992-2.3984-8.3984-6-10.199l-138-78c-3.6016-1.8008-8.3984-1.8008-12 0l-138 78c-3.6016 2.3984-6 6-6 10.199v96h-48v-96c0-4.1992-2.3984-8.3984-6-10.199l-138-78c-3.6016-1.8008-8.3984-1.8008-12 0l-138 78c-3.6016 2.3984-6 6-6 10.199v138c-1.1992 4.1992 1.1992 8.3984 4.8008 10.199zm18-127.8 114 64.199v110.4l-114-64.195zm413.4 255.6-113.4 64.199-113.4-64.199 113.4-64.199zm-239.4 20.398 114 64.199v110.4l-114-64.199zm312-100.8v-110.4l114-64.199v110.4zm-12-259.8 113.4 64.199-113.4 64.199-113.4-64.199zm-126 84.598 114 64.199v110.4l-114-64.195v-10.801h54c6.6016 0 12-5.3984 12-12s-5.3984-12-12-12h-54zm-24 99.602v18c0 4.1992 2.3984 8.3984 6 10.199l57 31.801-46.801 26.398-34.199-18.598c-3.6016-1.8008-8.3984-1.8008-12 0l-34.199 19.199-46.801-26.398 57-31.801c3.6016-2.3984 6-6 6-10.199v-18zm-126 0h54v10.801l-114 64.801v-110.4l114-64.199v75h-54c-6.6016 0-12 5.3984-12 12s5.3984 12 12 12zm-72-184.2 113.4 64.199-113.4 64.199-113.4-64.199z"/>
 </g>
</svg>
