<?xml version="1.0" encoding="UTF-8"?>
<svg width="1200pt" height="1200pt" version="1.1" viewBox="0 0 1200 1200" xmlns="http://www.w3.org/2000/svg">
 <g fill="#013e89">
  <path d="m144 771c-10.492 0-19 8.5078-19 19s8.5078 19 19 19 19-8.5078 19-19-8.5078-19-19-19z"/>
  <path d="m486 771h-266c-10.492 0-19 8.5078-19 19s8.5078 19 19 19h266c10.492 0 19-8.5078 19-19s-8.5078-19-19-19z"/>
  <path d="m144 866c-10.492 0-19 8.5078-19 19s8.5078 19 19 19 19-8.5078 19-19-8.5078-19-19-19z"/>
  <path d="m486 866h-266c-10.492 0-19 8.5078-19 19s8.5078 19 19 19h266c10.492 0 19-8.5078 19-19s-8.5078-19-19-19z"/>
  <path d="m144 961c-10.492 0-19 8.5078-19 19s8.5078 19 19 19 19-8.5078 19-19-8.5078-19-19-19z"/>
  <path d="m486 961h-266c-10.492 0-19 8.5078-19 19s8.5078 19 19 19h266c10.492 0 19-8.5078 19-19s-8.5078-19-19-19z"/>
  <path d="m600 866c-10.492-0.011719-18.992-8.5234-18.98-19.02 0.011719-10.492 8.5234-18.992 19.02-18.98 6.7812 0.007812 13.043 3.625 16.438 9.5 5.5195 8.9258 17.23 11.684 26.152 6.1602 8.5469-5.2852 11.496-16.312 6.7344-25.16-6.8789-11.566-17.637-20.32-30.363-24.699v-3.8008c0-10.492-8.5078-19-19-19s-19 8.5078-19 19v3.4961c-29.625 10.434-45.18 42.906-34.746 72.531 8.0273 22.793 29.582 38.02 53.746 37.977 10.492 0.011719 18.992 8.5234 18.98 19.02-0.011719 10.492-8.5234 18.992-19.02 18.98-6.7812-0.007812-13.047-3.6289-16.438-9.5-5.5195-8.9258-17.23-11.684-26.152-6.1602-8.543 5.2891-11.496 16.312-6.7344 25.16 6.8867 11.574 17.66 20.324 30.398 24.699v3.8008c0 10.492 8.5078 19 19 19 10.492 0 19-8.5078 19-19v-3.4961c29.625-10.434 45.18-42.906 34.746-72.527-8.0312-22.809-29.605-38.043-53.781-37.98z"/>
  <path d="m144 505h494c10.492 0 19-8.5078 19-19s-8.5078-19-19-19h-448.13l87.133-87.133 43.566 43.566c7.4219 7.418 19.445 7.418 26.867 0l119.57-119.57 24.566 24.566c7.4219 7.418 19.445 7.418 26.867 0l81.566-81.566v30.133c0 10.492 8.5078 19 19 19s19-8.5078 19-19v-76c0-10.492-8.5078-19-19-19h-76c-10.492 0-19 8.5078-19 19s8.5078 19 19 19h30.133l-68.133 68.133-24.566-24.566c-7.418-7.418-19.445-7.418-26.867 0l-119.57 119.57-43.566-43.566c-7.4219-7.418-19.445-7.418-26.867 0l-100.57 100.57v-296.13c0-10.492-8.5078-19-19-19s-19 8.5078-19 19v342c0 10.492 8.5078 19 19 19z"/>
  <path d="m657 581h-513c-10.492 0-19 8.5078-19 19s8.5078 19 19 19h513c10.492 0 19-8.5078 19-19s-8.5078-19-19-19z"/>
  <path d="m657 676h-513c-10.492 0-19 8.5078-19 19s8.5078 19 19 19h513c10.492 0 19-8.5078 19-19s-8.5078-19-19-19z"/>
  <path d="m1094 486h-304c-13.379 0.078125-26.5 3.7266-38 10.562v-409.56c0-31.48-25.52-57-57-57h-608c-31.48 0-57 25.52-57 57v1026c0.039062 23.086 18.785 41.77 41.871 41.73 8.2031-0.011719 16.219-2.4414 23.051-6.9766l34.523-22.969c3.1094-2.0898 7.1719-2.0898 10.281 0l57.305 38.172c14.027 9.3359 32.293 9.3359 46.32 0l57.191-38.133c3.125-2.0625 7.1758-2.0625 10.297 0l57.152 38c14.016 9.4023 32.324 9.4023 46.34 0l57.113-38.094c3.1133-2.0977 7.1875-2.0977 10.297 0l57.152 38.094c14.02 9.3867 32.32 9.3867 46.34 0l57.133-38.094c3.1133-2.1094 7.2031-2.1094 10.316 0l34.371 22.914c12.82 8.5391 29.301 9.3359 42.883 2.0703 1.7812-1.0898 3.4805-2.3164 5.0742-3.668 14.246 15.219 34.141 23.891 54.988 23.957h304c41.973-0.003906 76-34.031 76-76.004v-532c0-41.973-34.027-76-76-76zm-380 627c0.074219 1.3867-0.66797 2.6875-1.8984 3.3242-1.1992 0.66406-2.6719 0.58984-3.8008-0.1875l-34.543-22.895c-15.875-10.613-36.582-10.613-52.457 0l-57.152 38.113c-1.2656 0.82812-2.8945 0.82812-4.1602 0l-57.152-38.113c-15.875-10.613-36.582-10.613-52.457 0l-57.133 38.113c-1.2695 0.83594-2.9102 0.83594-4.1797 0l-57.133-38.133c-15.875-10.613-36.582-10.613-52.457 0l-57.207 38.133c-1.2695 0.83594-2.9102 0.83594-4.1797 0l-57.266-38.152c-15.875-10.59-36.562-10.59-52.441 0l-34.523 23.008c-1.7656 1.1328-4.1172 0.62109-5.25-1.1484-0.39453-0.61719-0.60547-1.332-0.60156-2.0664l-0.007812-1026c0-10.492 8.5078-19 19-19h608c10.492 0 19 8.5078 19 19zm418-19c0 20.988-17.012 38-38 38h-304c-20.988 0-38-17.012-38-38v-532c0-20.988 17.012-38 38-38h304c20.988 0 38 17.012 38 38z"/>
  <path d="m1056 562h-228c-20.988 0-38 17.012-38 38v114c0 20.988 17.012 38 38 38h228c20.988 0 38-17.012 38-38v-114c0-20.988-17.012-38-38-38zm0 152h-228v-114h228z"/>
  <path d="m847 790h-38c-10.492 0-19 8.5078-19 19s8.5078 19 19 19h38c10.492 0 19-8.5078 19-19s-8.5078-19-19-19z"/>
  <path d="m961 790h-38c-10.492 0-19 8.5078-19 19s8.5078 19 19 19h38c10.492 0 19-8.5078 19-19s-8.5078-19-19-19z"/>
  <path d="m1075 790h-38c-10.492 0-19 8.5078-19 19s8.5078 19 19 19h38c10.492 0 19-8.5078 19-19s-8.5078-19-19-19z"/>
  <path d="m847 866h-38c-10.492 0-19 8.5078-19 19s8.5078 19 19 19h38c10.492 0 19-8.5078 19-19s-8.5078-19-19-19z"/>
  <path d="m961 866h-38c-10.492 0-19 8.5078-19 19s8.5078 19 19 19h38c10.492 0 19-8.5078 19-19s-8.5078-19-19-19z"/>
  <path d="m1075 866h-38c-10.492 0-19 8.5078-19 19s8.5078 19 19 19h38c10.492 0 19-8.5078 19-19s-8.5078-19-19-19z"/>
  <path d="m847 942h-38c-10.492 0-19 8.5078-19 19s8.5078 19 19 19h38c10.492 0 19-8.5078 19-19s-8.5078-19-19-19z"/>
  <path d="m961 942h-38c-10.492 0-19 8.5078-19 19s8.5078 19 19 19h38c10.492 0 19-8.5078 19-19s-8.5078-19-19-19z"/>
  <path d="m1056 942c-10.492 0-19 8.5078-19 19v76c0 10.492 8.5078 19 19 19s19-8.5078 19-19v-76c0-10.492-8.5078-19-19-19z"/>
  <path d="m847 1018h-38c-10.492 0-19 8.5078-19 19s8.5078 19 19 19h38c10.492 0 19-8.5078 19-19s-8.5078-19-19-19z"/>
  <path d="m961 1018h-38c-10.492 0-19 8.5078-19 19s8.5078 19 19 19h38c10.492 0 19-8.5078 19-19s-8.5078-19-19-19z"/>
 </g>
</svg>
