<?xml version="1.0" encoding="UTF-8"?>
<svg width="1200pt" height="1200pt" version="1.1" viewBox="0 0 1200 1200" xmlns="http://www.w3.org/2000/svg">
 <g fill="#013e89">
  <path d="m412.5 834.38v-37.5c-0.003906-28.879-11.16-56.637-31.145-77.484-7.7266 9.9297-17.199 18.371-27.953 24.91 13.844 13.996 21.605 32.891 21.598 52.574v18.75h-150v-18.75c-0.007812-19.684 7.7539-38.578 21.598-52.574-10.754-6.5391-20.227-14.98-27.953-24.91-19.984 20.848-31.141 48.605-31.145 77.484v37.5c0 4.9727 1.9766 9.7422 5.4922 13.258 3.5156 3.5156 8.2852 5.4922 13.258 5.4922h187.5c4.9727 0 9.7422-1.9766 13.258-5.4922 3.5156-3.5156 5.4922-8.2852 5.4922-13.258z"/>
  <path d="m234.38 656.25c0 17.406 6.9141 34.098 19.223 46.402 12.305 12.309 28.996 19.223 46.402 19.223s34.098-6.9141 46.402-19.223c12.309-12.305 19.223-28.996 19.223-46.402s-6.9141-34.098-19.223-46.402c-12.305-12.309-28.996-19.223-46.402-19.223-17.398 0.019531-34.078 6.9414-46.379 19.246-12.305 12.301-19.227 28.98-19.246 46.379zm93.75 0c0 7.4609-2.9648 14.613-8.2383 19.887-5.2734 5.2734-12.426 8.2383-19.887 8.2383s-14.613-2.9648-19.887-8.2383c-5.2734-5.2734-8.2383-12.426-8.2383-19.887s2.9648-14.613 8.2383-19.887c5.2734-5.2734 12.426-8.2383 19.887-8.2383 7.457 0.007812 14.605 2.9727 19.879 8.2461 5.2734 5.2734 8.2383 12.422 8.2461 19.879z"/>
  <path d="m300 487.5h-150c-9.9414 0.011719-19.473 3.9648-26.504 10.996s-10.984 16.562-10.996 26.504v131.25c0 6.6992 3.5742 12.887 9.375 16.238 5.8008 3.3477 12.949 3.3477 18.75 0 5.8008-3.3516 9.375-9.5391 9.375-16.238v-131.25h150c6.6992 0 12.887-3.5742 16.238-9.375 3.3477-5.8008 3.3477-12.949 0-18.75-3.3516-5.8008-9.5391-9.375-16.238-9.375z"/>
  <path d="m843.75 675c4.9727 0 9.7422-1.9766 13.258-5.4922 3.5156-3.5156 5.4922-8.2852 5.4922-13.258v-131.25c-0.011719-9.9414-3.9648-19.473-10.996-26.504s-16.562-10.984-26.504-10.996h-150c-6.6992 0-12.887 3.5742-16.238 9.375-3.3477 5.8008-3.3477 12.949 0 18.75 3.3516 5.8008 9.5391 9.375 16.238 9.375h150v131.25c0 4.9727 1.9766 9.7422 5.4922 13.258 3.5156 3.5156 8.2852 5.4922 13.258 5.4922z"/>
  <path d="m112.5 918.75c0.011719 9.9414 3.9648 19.477 10.996 26.504 7.0273 7.0312 16.562 10.984 26.504 10.996h150c6.6992 0 12.887-3.5742 16.238-9.375 3.3477-5.8008 3.3477-12.949 0-18.75-3.3516-5.8008-9.5391-9.375-16.238-9.375h-150v-131.25c0-6.6992-3.5742-12.887-9.375-16.238-5.8008-3.3477-12.949-3.3477-18.75 0-5.8008 3.3516-9.375 9.5391-9.375 16.238z"/>
  <path d="m525 600c0 4.9727 1.9766 9.7422 5.4922 13.258 3.5156 3.5156 8.2852 5.4922 13.258 5.4922h187.5c6.6992 0 12.887-3.5742 16.238-9.375 3.3477-5.8008 3.3477-12.949 0-18.75-3.3516-5.8008-9.5391-9.375-16.238-9.375h-187.5c-4.9727 0-9.7422 1.9766-13.258 5.4922-3.5156 3.5156-5.4922 8.2852-5.4922 13.258z"/>
  <path d="m543.75 703.12h187.5c6.6992 0 12.887-3.5742 16.238-9.375 3.3477-5.8008 3.3477-12.949 0-18.75-3.3516-5.8008-9.5391-9.375-16.238-9.375h-187.5c-6.6992 0-12.887 3.5742-16.238 9.375-3.3477 5.8008-3.3477 12.949 0 18.75 3.3516 5.8008 9.5391 9.375 16.238 9.375z"/>
  <path d="m543.75 825c-6.6992 0-12.887 3.5742-16.238 9.375-3.3477 5.8008-3.3477 12.949 0 18.75 3.3516 5.8008 9.5391 9.375 16.238 9.375h75c6.6992 0 12.887-3.5742 16.238-9.375 3.3477-5.8008 3.3477-12.949 0-18.75-3.3516-5.8008-9.5391-9.375-16.238-9.375z"/>
  <path d="m487.5 600c0 10.355-8.3945 18.75-18.75 18.75s-18.75-8.3945-18.75-18.75 8.3945-18.75 18.75-18.75 18.75 8.3945 18.75 18.75"/>
  <path d="m487.5 684.38c0 10.355-8.3945 18.75-18.75 18.75s-18.75-8.3945-18.75-18.75 8.3945-18.75 18.75-18.75 18.75 8.3945 18.75 18.75"/>
  <path d="m487.5 768.75c0 10.355-8.3945 18.75-18.75 18.75s-18.75-8.3945-18.75-18.75 8.3945-18.75 18.75-18.75 18.75 8.3945 18.75 18.75"/>
  <path d="m75 1031.2h572.73c-3.4102-12.309-5.9688-24.84-7.6602-37.5h-565.07v-543.75h825l0.011719 225.7c6.1992-0.41016 12.434-0.69531 18.738-0.69531 6.3086 0 12.547 0.28516 18.75 0.69531v-225.7c-0.011719-9.9414-3.9648-19.473-10.996-26.504s-16.562-10.984-26.504-10.996h-300v-37.5c-0.011719-7.3125-2.1562-14.465-6.1758-20.574s-9.7383-10.914-16.453-13.816l59.762-299.68c1.3125-6.5703-0.98437-13.336-6.0156-17.758-5.0312-4.418-12.039-5.8125-18.383-3.6641-6.3438 2.1484-11.059 7.5195-12.367 14.086l-60.602 303.87-69.801 0.03125 59.41-315.27c1.2305-6.5781-1.1406-13.316-6.2188-17.676-5.082-4.3594-12.098-5.6797-18.418-3.4688-6.3164 2.2148-10.973 7.6289-12.223 14.207l-5.0156 26.625-5.0156-26.625c-1.25-6.5781-5.9062-11.992-12.223-14.207-6.3203-2.2109-13.336-0.89062-18.418 3.4688-5.0781 4.3594-7.4492 11.098-6.2188 17.676l22.793 120.96-34.945 185.46-58.84-295.05c-0.96875-4.8789-3.8359-9.1719-7.9727-11.938-4.1367-2.7617-9.2031-3.7695-14.082-2.7969-4.875 0.97656-9.168 3.8477-11.93 7.9844-2.7578 4.1406-3.7578 9.207-2.7812 14.086l59.762 299.68c-6.7148 2.9023-12.434 7.707-16.453 13.816s-6.1641 13.262-6.1758 20.574v37.5h-300c-9.9414 0.011719-19.473 3.9648-26.504 10.996s-10.984 16.562-10.996 26.504v543.75c0.011719 9.9414 3.9648 19.477 10.996 26.504 7.0273 7.0312 16.562 10.984 26.504 10.996zm337.5-656.25h150v37.5h-150z"/>
  <path d="m727.8 750h-184.05c-6.6992 0-12.887 3.5742-16.238 9.375-3.3477 5.8008-3.3477 12.949 0 18.75 3.3516 5.8008 9.5391 9.375 16.238 9.375h150.15c10.164-13.484 21.508-26.035 33.902-37.5z"/>
  <path d="m675 956.25c0 64.648 25.68 126.64 71.395 172.36 45.711 45.715 107.71 71.395 172.36 71.395s126.64-25.68 172.36-71.395c45.715-45.711 71.395-107.71 71.395-172.36s-25.68-126.64-71.395-172.36c-45.711-45.715-107.71-71.395-172.36-71.395-64.625 0.070312-126.58 25.773-172.28 71.473-45.699 45.695-71.402 107.65-71.473 172.28zm450 0c0 54.699-21.73 107.16-60.41 145.84-38.68 38.68-91.141 60.41-145.84 60.41s-107.16-21.73-145.84-60.41c-38.68-38.68-60.41-91.141-60.41-145.84s21.73-107.16 60.41-145.84c38.68-38.68 91.141-60.41 145.84-60.41 54.684 0.0625 107.11 21.812 145.77 60.477 38.664 38.668 60.414 91.09 60.477 145.77z"/>
  <path d="m800.48 951.91c-3.5859-3.457-8.3984-5.3438-13.379-5.2422-4.9766 0.097656-9.7148 2.1719-13.16 5.7656-3.4492 3.5938-5.3242 8.4102-5.2188 13.391 0.10938 4.9766 2.1953 9.707 5.7969 13.148l54.043 51.863v0.003906c6.4023 6.0625 14.832 9.5352 23.648 9.7383 8.8203 0.20703 17.398-2.8711 24.078-8.6328l167.29-145.95c5.0312-4.4062 7.332-11.16 6.0391-17.723-1.2891-6.5625-5.9805-11.938-12.309-14.109-6.3242-2.1719-13.328-0.80469-18.379 3.582l-165.82 144.66z"/>
 </g>
</svg>
