<?xml version="1.0" encoding="UTF-8"?>
<svg width="1200pt" height="1200pt" version="1.1" viewBox="0 0 1200 1200" xmlns="http://www.w3.org/2000/svg">
 <g fill="#013e89">
  <path d="m612.36 418.18c-100.4 0-182.08 81.684-182.08 182.07 0 100.4 81.684 182.07 182.08 182.07 100.4 0 182.07-81.664 182.07-182.07 0-100.39-81.668-182.07-182.07-182.07zm0 343.45c-88.996 0-161.39-72.398-161.39-161.38 0-88.977 72.398-161.37 161.39-161.37 88.977 0 161.38 72.391 161.38 161.37 0 88.977-72.398 161.38-161.38 161.38z"/>
  <path d="m673.99 651.78c0.49219-3.6211-0.33984-6.6602-2.6211-9.582-2.3008-2.8672-5.2617-4.5273-9.0742-5.0547-3.7734-0.50781-6.7539 0.28125-9.3555 2.3945-11.055 8.0547-23.562 12.074-37.391 12.074-14.094 0-26.75-5.375-37.578-15.961-10.887-10.66-16.395-23.441-16.395-38.004 0-14.574 5.5664-27.41 16.562-38.156 10.996-10.723 23.641-16.156 37.578-16.156 13.68 0 26.129 4.0078 37.016 11.922 3.0938 2.5273 6.0742 3.3398 9.7344 2.9062 3.6797-0.51953 6.6016-2.1875 8.9219-5.0938 2.2461-2.8594 3.0938-6.1133 2.5859-9.9414-0.52734-3.8594-2.168-6.8125-5.0195-9-10.445-7.9648-21.773-13.055-33.719-15.703v-23.395c0-4.7695-3.8594-8.625-8.625-8.625-4.7695 0-8.625 3.8594-8.625 8.625v21.262c-0.24609-0.003907-0.47656-0.058594-0.72266-0.058594-6.7812 0.066406-13.211 1.0977-19.465 2.6055v-23.809c0-4.7695-3.8594-8.625-8.625-8.625-4.7695 0-8.625 3.8594-8.625 8.625v30.254c-7.6289 3.8516-14.887 8.6289-21.445 15.004-16.34 15.93-24.301 34.582-24.301 57.012 0 22.141 8.1875 41.391 24.316 57.203 6.5508 6.4219 13.797 11.211 21.426 15.051v29.254c0 4.7695 3.8594 8.625 8.625 8.625 4.7695 0 8.625-3.8594 8.625-8.625v-22.875c6.2461 1.4688 12.676 2.4531 19.465 2.4531 0.24219 0 0.47656-0.054688 0.72266-0.058594v20.48c0 4.7695 3.8594 8.625 8.625 8.625 4.7695 0 8.625-3.8594 8.625-8.625v-22.598c11.789-2.5781 23.148-7.4766 33.852-15.125 2.625-2.3633 4.3594-5.5117 4.9062-9.3047z"/>
  <path d="m612.36 418.18c-100.4 0-182.08 81.684-182.08 182.07 0 100.4 81.684 182.07 182.08 182.07 100.4 0 182.07-81.664 182.07-182.07 0-100.39-81.668-182.07-182.07-182.07zm0 343.45c-88.996 0-161.39-72.398-161.39-161.38 0-88.977 72.398-161.37 161.39-161.37 88.977 0 161.38 72.391 161.38 161.37 0 88.977-72.398 161.38-161.38 161.38z"/>
  <path d="m673.99 651.78c0.49219-3.6211-0.33984-6.6602-2.6211-9.582-2.3008-2.8672-5.2617-4.5273-9.0742-5.0547-3.7734-0.50781-6.7539 0.28125-9.3555 2.3945-11.055 8.0547-23.562 12.074-37.391 12.074-14.094 0-26.75-5.375-37.578-15.961-10.887-10.66-16.395-23.441-16.395-38.004 0-14.574 5.5664-27.41 16.562-38.156 10.996-10.723 23.641-16.156 37.578-16.156 13.68 0 26.129 4.0078 37.016 11.922 3.0938 2.5273 6.0742 3.3398 9.7344 2.9062 3.6797-0.51953 6.6016-2.1875 8.9219-5.0938 2.2461-2.8594 3.0938-6.1133 2.5859-9.9414-0.52734-3.8594-2.168-6.8125-5.0195-9-10.445-7.9648-21.773-13.055-33.719-15.703v-23.395c0-4.7695-3.8594-8.625-8.625-8.625-4.7695 0-8.625 3.8594-8.625 8.625v21.262c-0.24609-0.003907-0.47656-0.058594-0.72266-0.058594-6.7812 0.066406-13.211 1.0977-19.465 2.6055v-23.809c0-4.7695-3.8594-8.625-8.625-8.625-4.7695 0-8.625 3.8594-8.625 8.625v30.254c-7.6289 3.8516-14.887 8.6289-21.445 15.004-16.34 15.93-24.301 34.582-24.301 57.012 0 22.141 8.1875 41.391 24.316 57.203 6.5508 6.4219 13.797 11.211 21.426 15.051v29.254c0 4.7695 3.8594 8.625 8.625 8.625 4.7695 0 8.625-3.8594 8.625-8.625v-22.875c6.2461 1.4688 12.676 2.4531 19.465 2.4531 0.24219 0 0.47656-0.054688 0.72266-0.058594v20.48c0 4.7695 3.8594 8.625 8.625 8.625 4.7695 0 8.625-3.8594 8.625-8.625v-22.598c11.789-2.5781 23.148-7.4766 33.852-15.125 2.625-2.3633 4.3594-5.5117 4.9062-9.3047z"/>
  <path d="m805.95 133.1c0 17.797-14.426 32.223-32.219 32.223s-32.219-14.426-32.219-32.223c0-17.793 14.426-32.219 32.219-32.219s32.219 14.426 32.219 32.219"/>
  <path d="m858.86 955.6c0 17.793-14.426 32.219-32.219 32.219s-32.219-14.426-32.219-32.219c0-17.797 14.426-32.219 32.219-32.219s32.219 14.422 32.219 32.219"/>
  <path d="m319.53 390.34c0 17.793-14.426 32.219-32.219 32.219-17.797 0-32.223-14.426-32.223-32.219 0-17.797 14.426-32.219 32.223-32.219 17.793 0 32.219 14.422 32.219 32.219"/>
  <path d="m1003.9 600.26c0 11.102-9 20.105-20.105 20.105-11.102 0-20.105-9.0039-20.105-20.105 0-11.105 9.0039-20.105 20.105-20.105 11.105 0 20.105 9 20.105 20.105"/>
  <path d="m477.1 268.23c0 14.438-11.703 26.141-26.137 26.141-14.438 0-26.137-11.703-26.137-26.141 0-14.434 11.699-26.137 26.137-26.137 14.434 0 26.137 11.703 26.137 26.137"/>
  <path d="m281.23 138.85c0 14.434-11.703 26.137-26.141 26.137-14.434 0-26.137-11.703-26.137-26.137 0-14.438 11.703-26.137 26.137-26.137 14.438 0 26.141 11.699 26.141 26.137"/>
  <path d="m1030 943.48c0 14.434-11.699 26.137-26.137 26.137-14.434 0-26.137-11.703-26.137-26.137 0-14.438 11.703-26.141 26.137-26.141 14.438 0 26.137 11.703 26.137 26.141"/>
  <path d="m258.86 995.24c0 11.105-9.0039 20.105-20.109 20.105-11.102 0-20.105-9-20.105-20.105 0-11.102 9.0039-20.105 20.105-20.105 11.105 0 20.109 9.0039 20.109 20.105"/>
  <path d="m222.99 685.62c0 11.105-9.0039 20.105-20.109 20.105-11.102 0-20.105-9-20.105-20.105 0-11.105 9.0039-20.105 20.105-20.105 11.105 0 20.109 9 20.109 20.105"/>
  <path d="m208.91 278.95c0 14.438-11.703 26.141-26.141 26.141-14.434 0-26.137-11.703-26.137-26.141 0-14.434 11.703-26.137 26.137-26.137 14.438 0 26.141 11.703 26.141 26.137"/>
  <path d="m826.64 961.59c-1.9453 0-3.7969-0.9375-4.9219-2.5547-1.1953-1.7344-1.4062-3.9609-0.5625-5.8828l156.09-352.88-204.8-455.41-222.4 297.61c-1.3828 1.8516-3.7734 2.7656-5.9062 2.3203l-257.93-48.539c-1.2656-0.23438-2.4141-0.86719-3.2812-1.8047l-104.55-111.4c-1.7344-1.8516-2.1094-4.5938-0.9375-6.8438l72.328-140.11 10.641 5.4844-70.383 136.36 100.31 106.88 252.33 47.484 226.27-302.79c1.2656-1.6875 3.3047-2.6719 5.4609-2.3672 2.1094 0.21094 3.9375 1.5469 4.8047 3.4922l210.07 467.16c0.70312 1.5469 0.72656 3.3281 0.023438 4.8984l-153.14 346.24 167.34-11.414 0.79688 11.953-177.26 12.094c-0.11719 0.023438-0.25781 0.023438-0.39844 0.023438z"/>
  <path d="m445.66 271.08 10.59-5.6836 91.406 170.34-10.59 5.6836z"/>
  <path d="m394.66 905.48 10.59-5.6797 91.383 170.34-10.59 5.6797z"/>
  <path d="m201.47 679.69 230.08-54.516 2.7656 11.672-230.08 54.516z"/>
  <path d="m713.01 474.65-9.1406-7.7812 65.297-76.477 9.1406 7.7812z"/>
  <path d="m1059.5 649.4-78.609-43.922 5.8594-10.453 78.609 43.922z"/>
  <path d="m631.66 1039.9-16.312-272.53 12-0.70312 16.312 272.53z"/>
  <path d="m395.41 899.34 132.05-152.48 9.0938 7.875-132.05 152.48z"/>
  <path d="m426.1 903.27c0 14.438-11.699 26.141-26.137 26.141-14.434 0-26.137-11.703-26.137-26.141 0-14.434 11.703-26.137 26.137-26.137 14.438 0 26.137 11.703 26.137 26.137"/>
  <path d="m517.49 1073c0 14.434-11.699 26.137-26.137 26.137-14.434 0-26.137-11.703-26.137-26.137 0-14.438 11.703-26.141 26.137-26.141 14.438 0 26.137 11.703 26.137 26.141"/>
  <path d="m1044.1 375.01c0 11.105-9 20.105-20.105 20.105-11.102 0-20.105-9-20.105-20.105s9.0039-20.105 20.105-20.105c11.105 0 20.105 9 20.105 20.105"/>
  <path d="m1080.2 644.17c0 11.105-9.0039 20.105-20.105 20.105-11.105 0-20.109-9-20.109-20.105s9.0039-20.105 20.109-20.105c11.102 0 20.105 9 20.105 20.105"/>
  <path d="m714.34 963.59c0 11.102-9 20.105-20.105 20.105-11.102 0-20.105-9.0039-20.105-20.105 0-11.105 9.0039-20.105 20.105-20.105 11.105 0 20.105 9 20.105 20.105"/>
  <path d="m799.27 394.28c0 14.438-11.703 26.137-26.137 26.137-14.438 0-26.141-11.699-26.141-26.137 0-14.434 11.703-26.137 26.141-26.137 14.434 0 26.137 11.703 26.137 26.137"/>
  <path d="m1119.4 311.8c0 17.793-14.426 32.219-32.219 32.219-17.797 0-32.223-14.426-32.223-32.219 0-17.797 14.426-32.223 32.223-32.223 17.793 0 32.219 14.426 32.219 32.223"/>
  <path d="m227.28 911.26c0 17.797-14.426 32.223-32.219 32.223s-32.219-14.426-32.219-32.223c0-17.793 14.426-32.219 32.219-32.219s32.219 14.426 32.219 32.219"/>
  <path d="m162.84 620.94c0 17.797-14.426 32.223-32.223 32.223-17.793 0-32.219-14.426-32.219-32.223 0-17.793 14.426-32.219 32.219-32.219 17.797 0 32.223 14.426 32.223 32.219"/>
  <path d="m669.88 1039.5c0 17.793-14.426 32.219-32.219 32.219s-32.219-14.426-32.219-32.219c0-17.797 14.426-32.223 32.219-32.223s32.219 14.426 32.219 32.223"/>
 </g>
</svg>
