<?xml version="1.0" encoding="UTF-8"?>
<svg width="1200pt" height="1200pt" version="1.1" viewBox="0 0 1200 1200" xmlns="http://www.w3.org/2000/svg">
 <g fill="#013e89">
  <path d="m352.2 840h-45.359c-5.1445 0-9.8984-2.7461-12.469-7.1992-2.5742-4.457-2.5742-9.9453 0-14.402 2.5703-4.4531 7.3242-7.1992 12.469-7.1992h33.719l73.68-70.68c27.277-26.43 63.781-41.195 101.76-41.16h244.8c4.4961-0.14844 8.8477 1.5938 12 4.8008l3.7188 3.8398v7.0781c-0.48047 25.07-8.2188 49.465-22.273 70.23-14.055 20.766-33.828 37.012-56.926 46.77-4.6797 2.0391-8.5195 3.3594-11.16 4.1992l-2.1602 1.2031h-147.48c-5.1445 0-9.8984-2.7461-12.469-7.1992-2.5742-4.457-2.5742-9.9453 0-14.402 2.5703-4.4531 7.3242-7.1992 12.469-7.1992h143.16l6.7188-2.6406c32.18-13.766 54.898-43.254 60-77.879h-230.4c-30.418-0.066406-59.672 11.68-81.602 32.762z"/>
  <path d="m486.36 1056h-175.68c-5.1445 0-9.8984-2.7461-12.469-7.1992-2.5742-4.457-2.5742-9.9453 0-14.402 2.5703-4.4531 7.3242-7.1992 12.469-7.1992h174.84c75.121-18 150.96-40.078 225.48-65.52 60-20.641 120.84-44.16 180-69.719l234.72-188.76c0.65234-0.66016 1.1797-1.4336 1.5625-2.2773-2.6406-5.6406-30.84-18.121-57.961-19.559-34.922-2.0391-69.84 17.281-83.281 25.68v-0.003907c-8.0859 4.8438-15.645 10.512-22.559 16.922l-2.3984 1.9219-168 109.32-47.039 1.0781-53.281 1.1992-1.9219-14.398v14.398h-1.8008c-5.1445 0-9.8984-2.7461-12.469-7.1992-2.5742-4.457-2.5742-9.9453 0-14.402 2.5703-4.4531 7.3242-7.1992 12.469-7.1992h3l53.039-1.1992 38.762-0.83984 160.32-104.04c8.2188-7.4844 17.141-14.156 26.641-19.922 29.699-19.59 64.5-30.023 100.08-30 26.16 1.4414 84 15.359 85.199 48 0.23828 9.1016-3.4844 17.855-10.199 24l-1.3203 1.1992-240 192.6c-60 26.16-122.16 50.16-183.72 71.281-75.961 25.078-153 47.52-228.84 66.238-1.8711 0.23438-3.7656 0.23438-5.6406 0z"/>
  <path d="m792 828.72-24-15.48 85.68-135.12v0.003906c13.297-20.777 32.152-37.41 54.422-48.016 22.27-10.602 47.066-14.758 71.578-11.984l26.762 3.1211v-0.003907c6.6406 0.40625 12.594 4.2422 15.707 10.121 3.1094 5.8828 2.9336 12.961-0.46875 18.68l-31.199 50.762-24-15 21.84-37.801-12.719-1.1992c-19.133-2.1484-38.48 1.1094-55.852 9.4023-17.375 8.293-32.074 21.289-42.43 37.516z"/>
  <path d="m696 154.32c-3.8203 0-7.4805-1.5156-10.184-4.2188-2.6992-2.6992-4.2148-6.3633-4.2148-10.18v-101.52c0-5.1445 2.7422-9.8984 7.1992-12.469 4.4531-2.5742 9.9453-2.5742 14.398 0 4.457 2.5703 7.1992 7.3242 7.1992 12.469v101.52c0 3.8164-1.5156 7.4805-4.2148 10.18-2.7031 2.7031-6.3633 4.2188-10.184 4.2188z"/>
  <path d="m594.96 201.12c-3.8203 0-7.4844-1.5195-10.184-4.2188-2.6992-2.6992-4.2188-6.3633-4.2188-10.184v-101.52c0-5.1445 2.7461-9.8984 7.2031-12.469 4.4531-2.5742 9.9414-2.5742 14.398 0 4.457 2.5703 7.1992 7.3242 7.1992 12.469v101.52c0 3.8203-1.5156 7.4844-4.2188 10.184-2.6992 2.6992-6.3633 4.2188-10.18 4.2188z"/>
  <path d="m805.32 201.12c-3.8203 0-7.4805-1.5195-10.184-4.2188-2.6992-2.6992-4.2148-6.3633-4.2148-10.184v-101.52c0-5.1445 2.7422-9.8984 7.1992-12.469 4.4531-2.5742 9.9453-2.5742 14.398 0 4.457 2.5703 7.1992 7.3242 7.1992 12.469v101.52c0 3.8203-1.5156 7.4844-4.2148 10.184-2.7031 2.6992-6.3633 4.2188-10.184 4.2188z"/>
  <path d="m228.96 1200h-185.04v-28.801h178.32v-400.2h28.801v406.8c0 5.8672-2.3203 11.496-6.457 15.656-4.1406 4.1602-9.7539 6.5117-15.621 6.543z"/>
  <path d="m299.04 1152h-60v-28.801h53.762v-337.8h-248.88v-29.398h255.12c5.8906 0 11.535 2.3398 15.699 6.5039 4.1641 4.1602 6.5 9.8086 6.5 15.695v351.36c0.066407 5.9297-2.2461 11.641-6.4141 15.855-4.1719 4.2148-9.8555 6.5859-15.785 6.5859z"/>
  <path d="m700.08 624c-40.141 0.070312-79.406-11.766-112.82-34.016-33.414-22.246-59.48-53.906-74.895-90.973-15.418-37.066-19.496-77.871-11.715-117.25 7.7773-39.383 27.062-75.574 55.414-103.99 28.355-28.422 64.5-47.793 103.86-55.664 39.363-7.875 80.18-3.8945 117.28 11.438 37.102 15.328 68.824 41.316 91.152 74.68s34.258 72.598 34.281 112.74c0.03125 53.773-21.285 105.36-59.266 143.44-37.98 38.07-89.52 59.508-143.3 59.602zm0-377.16c-34.449-0.070313-68.152 10.082-96.832 29.168-28.68 19.09-51.055 46.258-64.289 78.07-13.234 31.809-16.734 66.832-10.055 100.63 6.6758 33.801 23.23 64.859 47.57 89.246 24.336 24.387 55.359 41.008 89.145 47.754 33.785 6.75 68.816 3.3203 100.65-9.8477 31.836-13.168 59.051-35.484 78.199-64.125 19.148-28.645 29.371-62.32 29.371-96.773 0-46.117-18.297-90.352-50.871-123-32.574-32.645-76.773-51.031-122.89-51.125z"/>
  <path d="m701.52 495.48c-12.672 0.48828-25.023-4.0586-34.355-12.648-9.332-8.5898-14.883-20.523-15.445-33.191 0-5.1445 2.7461-9.8984 7.2031-12.473 4.4531-2.5703 9.9414-2.5703 14.398 0 4.4531 2.5742 7.1992 7.3281 7.1992 12.473 1.3125 6.5391 5.5898 12.098 11.57 15.043 5.9844 2.9453 12.996 2.9453 18.98 0 5.9805-2.9453 10.258-8.5039 11.57-15.043-0.57422-5.0234-3.0977-9.6211-7.0234-12.809-3.9258-3.1836-8.9414-4.7031-13.977-4.2305-5.1445 0-9.8984-2.7461-12.473-7.2031-2.5703-4.4531-2.5703-9.9414 0-14.398 2.5742-4.457 7.3281-7.1992 12.473-7.1992 12.734-0.90625 25.27 3.5273 34.605 12.234 9.3359 8.707 14.629 20.902 14.613 33.668-0.019531 12.766-5.3438 24.949-14.703 33.633-9.3555 8.6836-21.906 13.082-34.637 12.145z"/>
  <path d="m701.52 432.6c-12.672 0.48828-25.023-4.0625-34.355-12.648-9.332-8.5898-14.883-20.523-15.445-33.191 1.4297-16.812 11.234-31.77 26.078-39.789 14.84-8.0156 32.727-8.0156 47.566 0 14.844 8.0195 24.648 22.977 26.078 39.789 0 5.1445-2.7461 9.8984-7.2031 12.469-4.4531 2.5742-9.9414 2.5742-14.398 0-4.457-2.5703-7.1992-7.3242-7.1992-12.469-1.3125-6.5391-5.5898-12.098-11.57-15.047-5.9844-2.9453-12.996-2.9453-18.98 0-5.9805 2.9492-10.258 8.5078-11.57 15.047 0.57422 5.0234 3.0977 9.6211 7.0234 12.805 3.9258 3.1875 8.9414 4.707 13.977 4.2344 5.1445 0 9.8984 2.7422 12.473 7.1992 2.5703 4.457 2.5703 9.9453 0 14.398-2.5742 4.457-7.3281 7.2031-12.473 7.2031z"/>
  <path d="m696 367.92c-6.6289 0-12-5.375-12-12v-36c0-6.6289 5.3711-12 12-12s12 5.3711 12 12v36c0 3.1797-1.2656 6.2344-3.5156 8.4844s-5.3008 3.5156-8.4844 3.5156z"/>
  <path d="m696 523.92c-6.6289 0-12-5.375-12-12v-24c0-6.6289 5.3711-12 12-12s12 5.3711 12 12v24c0 3.1797-1.2656 6.2344-3.5156 8.4844s-5.3008 3.5156-8.4844 3.5156z"/>
 </g>
</svg>
