<?xml version="1.0" encoding="UTF-8"?>
<svg width="1200pt" height="1200pt" version="1.1" viewBox="0 0 1200 1200" xmlns="http://www.w3.org/2000/svg">
 <g fill="#013e89">
  <path d="m1065 282c-63.949-30.254-284.29-137.26-435.45-242.73-8.668-6.0312-18.973-9.2617-29.531-9.2617s-20.863 3.2305-29.531 9.2617c-151.15 105.48-371.5 212.48-435.45 242.73-8.7383 4.1758-16.117 10.738-21.281 18.93-5.1641 8.1953-7.9023 17.684-7.9023 27.367 0.37109 230.15 0.96094 577.94 469.42 835.41 15.43 8.3867 34.055 8.3867 49.484 0 468.46-257.47 469.05-605.27 469.42-835.43 0-9.6836-2.7422-19.168-7.9062-27.359-5.1641-8.1914-12.543-14.75-21.277-18.926zm-454.51 855.76c-6.5195 3.5742-14.41 3.5742-20.93 0-453.16-249.05-453.72-586.32-454.09-809.51l0.003906-0.003906c-0.03125-4.0703 1.1094-8.0703 3.2852-11.516 2.1719-3.4453 5.2891-6.1953 8.9766-7.9219 64.453-30.539 286.69-138.41 439.72-245.21 3.6797-2.6211 8.082-4.0273 12.598-4.0273 4.5156 0 8.9219 1.4062 12.602 4.0273 152.98 106.8 375.21 214.67 439.67 245.21 3.6875 1.7266 6.8008 4.4766 8.9766 7.918 2.1719 3.4453 3.3125 7.4375 3.2852 11.508-0.37109 223.2-0.93359 560.47-454.09 809.52z"/>
  <path d="m996.88 347.9c-88.008-42.625-255.6-127.34-388.69-215.73-2.4258-1.6094-5.2734-2.4688-8.1836-2.4688s-5.7578 0.85938-8.1836 2.4688c-132.89 88.234-300.56 173.04-388.67 215.75-2.5273 1.2148-4.6602 3.1172-6.1445 5.4922-1.4883 2.375-2.2695 5.125-2.2578 7.9258 1.4297 232.8 33.457 498.74 397.78 710.14 2.2578 1.3047 4.8203 1.9922 7.4297 1.9922 2.6055 0 5.168-0.6875 7.4258-1.9922 364.31-211.34 396.35-477.37 397.8-710.14 0.019531-2.793-0.75-5.5352-2.2188-7.9102s-3.5781-4.2891-6.0859-5.5195zm-396.88 693.61c-339.07-200.05-373.32-450.34-375.53-671.05 129.14-61.992 254.54-131.52 375.53-208.21 121.01 76.715 246.42 146.24 375.6 208.22-2.2812 220.73-36.555 471.05-375.6 671.04z"/>
  <path d="m443.89 633.93c-3.7695-3.5742-9.1406-4.9062-14.145-3.5156s-8.9141 5.3047-10.305 10.309c-1.3867 5.0078-0.050781 10.375 3.5234 14.145l88.801 88.801c2.7734 2.7773 6.5352 4.3398 10.461 4.3398 3.9258 0 7.6914-1.5625 10.465-4.3398l266.51-266.47c3.4414-3.7852 4.6836-9.0781 3.2852-14-1.3945-4.9219-5.2344-8.7773-10.152-10.191-4.9141-1.4102-10.215-0.1875-14.012 3.2383l-256.05 256.06z"/>
 </g>
</svg>
