<?xml version="1.0" encoding="UTF-8"?>
<svg width="1200pt" height="1200pt" version="1.1" viewBox="0 0 1200 1200" xmlns="http://www.w3.org/2000/svg">
 <g fill="#013e89">
  <path d="m767.73 719.03-70.773 19.039 80 47.375v-58.199c0-8.3477-4.5078-9.4688-9.2266-8.2148z" fill-rule="evenodd"/>
  <path d="m539.68 780.15-107.57 28.812c-5 1.4531-9.1484 7.293-9.1484 13.121v68.961c0 5.8398 4.1602 9.5195 9.1484 8.1211l107.51-28.812z" fill-rule="evenodd"/>
  <path d="m882.38 163.48c-6.3086-0.26562-13.055 0.42578-20 2.293l-524.86 140.69c-37.012 9.9336-67.359 48.199-67.359 85.281v584.39c0 37 30.348 59.16 67.359 49.238l211.25-56.613c-6.5195-8.4648-8.8945-15.625-9.3086-25.613l-201.95 54.105c-22 5.8945-39.227-6.7461-39.227-28.691v-584.39c0-21.867 17.227-43.668 39.227-49.574l524.85-140.69c22.027-5.9062 39.238 6.7344 39.238 28.613v584.44c0 21.867-17.215 43.746-39.238 49.652l-22.16 5.9062-14.441 31.988 36.586-9.8398c37.078-9.8672 67.375-48.266 67.375-85.281l0.003906-584.38c0.011719-30.16-19.988-50.344-47.359-51.531z" fill-rule="evenodd"/>
  <path d="m771.33 582.85c-1.1055-0.22656-2.3477-0.22656-3.6016 0.13281l-335.64 89.949c-5.0547 1.4531-9.1484 7.293-9.1484 13.121v68.961c0 5.8398 4.0938 9.4258 9.1484 8.1211l113.69-30.492 14.027-29.238-108.89 29.105v-39.105l298.12-79.84v39.094l-130 34.867 29.652 17.547 119.03-31.879c5.0547-1.3867 9.2266-7.2148 9.2266-13.055v-68.941c0.015626-4.3711-2.332-7.5859-5.6133-8.3477z" fill-rule="evenodd"/>
  <path d="m606.69 745.29 173.75 98.188-45.973 14.852c-6.5195 2.0664-9.4414 9.5859-6.0547 15.48l50.16 88.691-53.613 15.332-56.801-94.027c-2.5078-4.1211-7.5078-6.1211-12.16-4.7188l-48.895 14.785zm-9.9297-31.668c-4.3086-0.14844-8.332 2.2266-10.133 6.0938l-17.012 35.641c-0.69141 1.3867-1.0547 2.9219-1.0547 4.4414l-0.21484 183.96c-0.066406 7.2266 6.8125 12.508 13.762 10.492l54.945-16.602 56.801 94.027c2.5742 4.1719 7.5742 6.0391 12.215 4.668l74.52-21.387c2.9219-0.90625 5.3594-3 6.668-5.7188l16.668-34.906c1.8125-3.3477 1.8125-7.3203 0-10.641l-35.828-61.535 22.16-5.9609c2.9219-0.83984 4.9336-4.0938 6.1875-6.8125l16.879-37.16v-0.054687c0.066406-0.066406 0.066406-0.14844 0.14844-0.21484 2.1484-4.668 0.8125-10.148-3.3477-13.266l-207.46-122.98c-1.7461-1.2656-3.7617-2.0273-5.9062-2.082z"/>
  <path d="m749.04 477.43v39.188l-298.12 79.867v-39.172zm22.293-30.598c-1.1055-0.22656-2.3477-0.22656-3.6016 0.13281l-335.64 89.922c-5 1.3867-9.1484 7.2148-9.1484 13.066v68.934c0 5.8398 4.1602 9.5352 9.1484 8.1875l335.64-89.988c5.0547-1.3086 9.2266-7.1484 9.2266-13v-68.934c0.003907-4.4414-2.3438-7.5625-5.625-8.3203z" fill-rule="evenodd"/>
  <path d="m557.8 392.64v39.105l-106.88 28.668v-39.16zm18.746-30.547-144.44 38.68c-5 1.4531-9.1484 7.293-9.1484 13.121v68.961c0 5.8398 4.1602 9.5195 9.1484 8.1211l144.44-38.68c5.0664-1.3867 9.1719-7.2148 9.1719-13.055v-68.961c0-8.3359-4.4531-9.4414-9.1719-8.1875z" fill-rule="evenodd"/>
  <path d="m749.04 341.39v39.172l-106.95 28.613v-39.172zm22.293-30.625c-1.1055-0.26562-2.3477-0.19922-3.6016 0.14844l-144.39 38.68c-5.0664 1.3867-9.1602 7.293-9.1602 13.055v69.039c0 5.7617 4.0938 9.4414 9.1602 8.1211l144.39-38.746c5.0547-1.332 9.2266-7.2266 9.2266-13v-68.961c0.003907-4.4453-2.3438-7.6445-5.625-8.3359z" fill-rule="evenodd"/>
 </g>
</svg>
