<?xml version="1.0" encoding="UTF-8"?>
<svg width="1200pt" height="1200pt" version="1.1" viewBox="0 0 1200 1200" xmlns="http://www.w3.org/2000/svg">
 <g fill="#013e89">
  <path d="m1065.9 1145.4h-955.16c-44.508 0-80.719-36.211-80.719-80.719v-579.94h36.773c0 24.242 19.715 43.957 43.945 43.957h955.16l18.387 18.387v191.54h-36.773v-173.16h-936.77c-16.195 0-31.293-4.7891-43.945-13.035v512.24c0 24.23 19.715 43.945 43.945 43.945h936.77v-173.3h36.773v191.69z"/>
  <path d="m30 484.78v-0.14453c0-44.52 36.211-80.73 80.719-80.73h243.91v36.773h-243.91c-24.23 0-43.945 19.715-43.945 43.957z"/>
  <path d="m1151.6 953.82h-202.48c-55.258 0-100.22-44.961-100.22-100.22v-33.027c0-55.258 44.961-100.22 100.22-100.22h202.48l18.387 18.387v196.69zm-202.48-196.69c-34.98 0-63.445 28.465-63.445 63.445v33.027c0 34.98 28.465 63.445 63.445 63.445h184.1v-159.92z"/>
  <path d="m379.58 556.39c-23.832-40.891-38.391-85.375-43.25-132.19-1.2695-11.469-1.9141-23.438-1.9141-35.48 0-184.25 149.97-334.15 334.3-334.15 184.25 0 334.15 149.9 334.15 334.15 0 58.992-15.621 116.98-45.164 167.66l-31.77-18.508c26.277-45.082 40.16-96.664 40.16-149.16 0-163.98-133.4-297.38-297.38-297.38-164.06 0-297.52 133.4-297.52 297.38 0 10.691 0.57422 21.309 1.7109 31.555 4.3203 41.719 17.262 81.246 38.449 117.59z"/>
  <path d="m668.64 550.84c-31.242 0-60.789-16.641-77.105-43.418l31.41-19.129c9.8281 16.137 26.91 25.773 45.691 25.773 29.52 0 53.535-24.012 53.535-53.535 0-29.461-24.012-53.426-53.535-53.426-49.738 0-90.199-40.461-90.199-90.199 0-49.797 40.461-90.309 90.199-90.309 31.375 0 60.941 16.664 77.141 43.477l-31.484 19.008c-9.7188-16.102-26.789-25.715-45.656-25.715-29.461 0-53.426 24.012-53.426 53.535 0 29.461 23.965 53.426 53.426 53.426 49.797 0 90.309 40.461 90.309 90.199 0.003907 49.805-40.508 90.312-90.305 90.312z"/>
  <path d="m650.29 190.25h36.773v54.766h-36.773z"/>
  <path d="m650.32 532.45h36.773v14.676h-36.773z"/>
 </g>
</svg>
